<?xml version="1.0" standalone="no"?>
<!DOCTYPE svg PUBLIC "-//W3C//DTD SVG 1.1//EN" "http://www.w3.org/Graphics/SVG/1.1/DTD/svg11.dtd" >
<!--
2013-9-30: Created.
-->
<svg>
<metadata>
Created by iconfont
</metadata>
<defs>

<font id="iconfont" horiz-adv-x="1024" >
  <font-face
    font-family="iconfont"
    font-weight="500"
    font-stretch="normal"
    units-per-em="1024"
    ascent="896"
    descent="-128"
  />
    <missing-glyph />
    
    <glyph glyph-name="chuku" unicode="&#58912;" d="M826.806-130.035h-630.226c-58.005 0-105.038 47.032-105.038 105.037v630.226c0 58.005 47.032 105.038 105.038 105.038h630.226c58.005 0 105.038-47.032 105.038-105.038v-630.226c0.001-58.005-47.033-105.037-105.038-105.037zM879.349 605.228c0 29.026-23.516 52.519-52.542 52.519h-630.226c-29.002 0-52.519-23.493-52.519-52.519v-630.226c0-28.979 23.493-52.519 52.519-52.519h630.226c29.002 0 52.542 23.493 52.542 52.519v630.226zM748.052 552.71h-472.692c-14.513 0-26.259 11.77-26.259 26.259s11.746 26.259 26.259 26.259h472.669c14.513 0 26.282-11.77 26.282-26.259s-11.769-26.259-26.258-26.259zM492.163 491.937c5.486 5.486 12.754 7.877 19.976 7.502 7.175 0.375 14.466-1.97 19.953-7.502l129.75-157.041c10.338-10.363 10.338-27.103 0-37.419-10.293-10.316-26.987-10.316-37.279 0l-86.609 104.85v-401.065c0-14.49-11.723-26.259-26.259-26.259-14.49 0-26.259 11.77-26.259 26.259v400.080l-85.789-103.819c-10.293-10.363-26.986-10.363-37.279 0-10.293 10.317-10.293 27.056 0 37.419l129.794 156.995z"  horiz-adv-x="1024" />

    
    <glyph glyph-name="iconfontruku" unicode="&#58889;" d="M196.58 710.266l630.226 0c58.005 0 105.038-47.032 105.038-105.037l0-630.226c0-58.005-47.032-105.038-105.038-105.038L196.58-130.035c-58.005 0-105.038 47.032-105.038 105.038L91.542 605.229C91.541 663.233 138.575 710.266 196.58 710.266L196.58 710.266zM144.037-24.997c0-29.026 23.516-52.52 52.542-52.52l630.226 0c29.002 0 52.52 23.493 52.52 52.52L879.325 605.229c0 28.979-23.493 52.519-52.52 52.519L196.579 657.748c-29.002 0-52.542-23.492-52.542-52.519L144.037-24.997zM275.334 27.521l472.692 0c14.513 0 26.259-11.77 26.259-26.259s-11.746-26.259-26.259-26.259l-472.67 0c-14.513 0-26.281 11.77-26.281 26.259S260.844 27.521 275.334 27.521L275.334 27.521zM531.223 88.294c-5.486-5.486-12.754-7.877-19.976-7.502-7.176-0.375-14.467 1.97-19.953 7.502l-129.75 157.041c-10.338 10.362-10.338 27.103 0 37.419 10.293 10.315 26.986 10.315 37.279 0l86.608-104.851L485.431 578.969c0 14.489 11.724 26.259 26.259 26.259 14.49 0 26.26-11.771 26.26-26.259l0-400.08 85.789 103.818c10.293 10.363 26.985 10.363 37.278 0 10.293-10.316 10.293-27.056 0-37.419L531.223 88.294 531.223 88.294z"  horiz-adv-x="1024" />

    
    <glyph glyph-name="caigoudanguanli" unicode="&#59003;" d="M735.61901 187.240731l-188.288341 0-69.502957 0-188.288341 0c-17.795295 0-32.223912-13.927197-32.223912-31.722492s14.428617-31.722492 32.223912-31.722492l188.288341 0 69.502957 0 188.288341 0c17.795295 0 32.223912 13.927197 32.223912 31.722492S753.414305 187.240731 735.61901 187.240731zM735.61901 411.342742l-188.288341 0-69.502957 0-188.288341 0c-17.795295 0-32.223912-13.927197-32.223912-31.722492s14.428617-31.722492 32.223912-31.722492l188.288341 0 69.502957 0 188.288341 0c17.795295 0 32.223912 13.927197 32.223912 31.722492S753.414305 411.342742 735.61901 411.342742zM484.902852 635.444752 371.485733 635.444752l-0.415462 0-81.530898 0c-17.795295 0-32.223912-13.927197-32.223912-31.722492s14.428617-31.722492 32.223912-31.722492l81.530898 0 0.415462 0 113.417119 0c17.795295 0 32.223912 13.927197 32.223912 31.722492S502.698147 635.444752 484.902852 635.444752zM483.421104 159.808962M272.532023 159.808962M800.128233-67.656657 223.385696-67.656657c-66.698075 0-120.949676 54.251601-120.949676 120.949676L102.43602 716.416925c0 66.698075 54.251601 120.966049 120.949676 120.966049l576.742537 0c66.698075 0 120.949676-54.267974 120.949676-120.966049l0-663.123906C921.077909-13.405055 866.826308-67.656657 800.128233-67.656657zM223.385696 772.93515c-31.153534 0-56.501852-25.348318-56.501852-56.518225l0-663.123906c0-31.154557 25.348318-56.501852 56.501852-56.501852l576.742537 0c31.153534 0 56.501852 25.348318 56.501852 56.501852L856.630085 716.416925c0 31.169907-25.348318 56.518225-56.501852 56.518225L223.385696 772.93515zM653.064806 529.076166c-7.410783 0-14.853289 2.549056-20.926612 7.725962l-60.765969 51.955302c-13.531178 11.564383-15.120372 31.909757-3.555989 45.440935 11.564383 13.547551 31.925107 15.120372 45.440935 3.555989l36.818557-31.484062 104.869443 117.237121c11.83249 13.279445 32.239262 14.412244 45.488007 2.533706 13.264095-11.864212 14.412244-32.223912 2.533706-45.488007L677.092036 539.822928C670.735257 532.71095 661.923568 529.076166 653.064806 529.076166z"  horiz-adv-x="1024" />

    
    <glyph glyph-name="chanpin" unicode="&#58894;" d="M961.494778 732.944575 712.444901 887.461499c-20.49099 12.761994-48.420976 11.057995-67.262967-4.081998L511.969 776.207554 378.785066 883.363501c-18.763991 15.097993-46.776977 16.910992-67.191967 4.119998l-249.129877-154.559924c-33.058984-20.57199-36.794982-68.764966-6.564997-93.653954l115.608943-96.585952-94.004954-73.476964c-31.079985-23.968988-29.337986-72.402964 3.503998-93.986954L320.127095 216.66483c20.62699-13.590993 47.820976-12.570994 67.535967 2.314999l124.322939 95.727953 123.569939-95.653953c19.141991-14.733993 47.582977-15.754992 67.671967-2.348999l239.204882 158.550922c32.569984 21.687989 34.376983 69.647966 3.657998 93.810954l-93.731954 73.459964 115.553943 96.591952C998.26176 664.135609 994.735762 712.206585 961.494778 732.944575L961.494778 732.944575zM796.25686 509.790685l109.908946-86.148957L671.159921 267.865805l-109.562946 84.784958L796.25686 509.790685 796.25686 509.790685zM561.690975 738.726572l120.159941 96.660952 244.914879-151.954925L803.019856 579.949651 561.690975 738.726572 561.690975 738.726572zM743.267886 546.990667 511.824 391.995743 279.742115 545.528668l232.237885 153.631924L743.267886 546.990667 743.267886 546.990667zM462.102025 352.513763l-109.233946-84.099959L117.232195 423.638728l108.807946 85.023958L462.102025 352.513763 462.102025 352.513763zM97.219205 683.4236 342.712084 834.899525l119.593941-96.217953L221.639143 579.480651 97.219205 683.4236 97.219205 683.4236zM519.265996 241.798818 359.448075 120.166878 172.313168 244.205816l0-154.424924c0-20.67199 10.387995-38.939981 28.499986-50.116975l282.212861-159.500921c18.559991-10.488995 41.873979-11.098995 60.42697-0.486L824.017846 40.154917c17.101992 10.535995 27.724986 29.550985 27.724986 49.625976L851.742832 234.944821 677.720918 120.686877 519.265996 241.798818zM232.688138 131.747872l94.685953-62.752969c20.53599-13.579993 47.810976-12.641994 67.453967 2.238999l124.357939 94.622953 123.651939-94.489953c19.077991-14.707993 47.656976-15.857992 67.673967-2.352999l80.85196 53.568974-0.005-31.577984L514.309999-67.45103 232.688138 90.969892 232.688138 131.747872 232.688138 131.747872z"  horiz-adv-x="1024" />

    
    <glyph glyph-name="iconfontwodea" unicode="&#58934;" d="M512 896C229.225951 896 0 666.774049 0 384c0-282.774049 229.225951-512 512-512 282.774049 0 512 229.225951 512 512C1024.143177 666.774049 794.917226 896 512 896L512 896 512 896zM202.881432 42.95302C250.988814 167.230425 370.684564 256 512 256s261.011186-88.626398 309.261745-212.903803c-81.897092-74.308725-190.138702-119.838926-309.261745-119.838926C392.876957-76.885906 284.635347-31.212528 202.881432 42.95302L202.881432 42.95302 202.881432 42.95302zM358.371365 460.742729c0 84.903803 68.724832 153.628635 153.628635 153.628635s153.628635-68.724832 153.628635-153.628635c0-84.903803-68.724832-153.628635-153.628635-153.628635S358.371365 375.982103 358.371365 460.742729L358.371365 460.742729 358.371365 460.742729zM859.919463 82.326622c-45.243848 98.791946-130.147651 175.248322-235.239374 207.606264C680.089485 326.442953 716.885906 389.297539 716.885906 460.742729c0 113.10962-91.776286 204.885906-204.885906 204.885906-113.10962 0-204.885906-91.776286-204.885906-204.885906 0-71.44519 36.653244-134.299776 92.205817-170.95302-105.091723-32.357942-189.995526-108.814318-235.239374-207.606264-70.299776 80.894855-112.966443 186.129754-112.966443 301.673378 0 254.568233 206.317673 460.885906 460.885906 460.885906 254.568233 0 460.885906-206.317673 460.885906-460.885906C972.885906 268.456376 930.076063 163.221477 859.919463 82.326622L859.919463 82.326622 859.919463 82.326622zM859.919463 82.326622"  horiz-adv-x="1025" />

    
    <glyph glyph-name="denglu" unicode="&#58895;" d="M512 896C231.722436 896 0 664.277564 0 384S231.722436-128 512-128 1024 103.722436 1024 384 792.277564 896 512 896L512 896zM512 680.462606c75.398612 0 134.743768-59.345155 134.743768-134.743768 0-75.398612-59.345155-134.743768-134.743768-134.743768-75.398612 0-134.743768 59.345155-134.743768 134.743768C377.256232 621.117451 436.601388 680.462606 512 680.462606L512 680.462606zM743.722436 173.726034c-21.580057-43.160113-129.348754-80.793626-231.722436-86.18864-107.768697 5.395014-215.537394 43.160113-237.117451 86.18864C226.327422 265.441275 388.046261 357.024929 512 357.024929 635.953739 357.024929 792.277564 265.441275 743.722436 173.726034L743.722436 173.726034zM743.722436 173.726034"  horiz-adv-x="1024" />

    
    <glyph glyph-name="diaojie" unicode="&#58937;" d="M928-128 96-128c-53.024 0-96 42.976-96 96L0 800c0 53.024 42.976 96 96 96l832 0c53.024 0 96-42.976 96-96l0-832C1024-85.024 981.024-128 928-128zM960 800c0 17.664-14.336 32-32 32L96 832C78.304 832 64 817.696 64 800l0-832c0-17.664 14.336-32 32-32l832 0c17.664 0 32 14.304 32 32L960 800zM832 96 320 96l0-64L256 32l0 64L192 96c-17.664 0-32 14.336-32 32 0 17.696 14.336 32 32 32l64 0 0 64 64 0 0-64 512 0c17.664 0 32-14.336 32-32C864 110.336 849.664 96 832 96zM832 352l-96 0 0-64-64 0 0 64L192 352c-17.664 0-32 14.336-32 32 0 17.664 14.336 32 32 32l480 0 0 64 64 0 0-64 96 0c17.664 0 32-14.304 32-32C864 366.336 849.664 352 832 352zM832 608 480 608l0-64-64 0L416 608 192 608C174.304 608 160 622.336 160 640c0 17.664 14.336 32 32 32l224 0L416 736l64 0 0-64 352 0c17.664 0 32-14.336 32-32C864 622.336 849.664 608 832 608z"  horiz-adv-x="1024" />

    
    <glyph glyph-name="imagepicture" unicode="&#59141;" d="M256 576C220.672 576 192 604.672 192 640 192 675.328 220.672 704 256 704 291.328 704 320 675.328 320 640 320 604.672 291.328 576 256 576L256 576ZM256 768C185.312 768 128 710.688 128 640 128 569.312 185.312 512 256 512 326.688 512 384 569.312 384 640 384 710.688 326.688 768 256 768L256 768ZM960 347.904 768 544 449.888 220.448 320 352 64 117.216 64 768C64 803.328 92.672 832 128 832L896 832C931.328 832 960 803.328 960 768L960 347.904 960 347.904ZM960 0C960-35.328 931.328-64 896-64L730.624-64 494.848 174.88 768 448.032 960 256.032 960 0 960 0ZM128-64C92.672-64 64-35.328 64 0L64 30.048 318.24 257.76 640.032-64 128-64 128-64ZM896 896 128 896C57.312 896 0 838.688 0 768L0 0C0-70.688 57.312-128 128-128L896-128C966.688-128 1024-70.688 1024 0L1024 768C1024 838.688 966.688 896 896 896L896 896Z"  horiz-adv-x="1024" />

    
    <glyph glyph-name="xinzeng" unicode="&#58896;" d="M898.004474 1.813572 798.735272 1.813572 798.735272-97.45563C798.735272-113.90301 785.401891-127.236391 768.954512-127.236391 752.507132-127.236391 739.173751-113.90301 739.173751-97.45563L739.173751 1.813572 639.904549 1.813572C623.457169 1.813572 610.123788 15.146953 610.123788 31.594333 610.123788 48.041712 623.457169 61.375093 639.904549 61.375093L739.173751 61.375093 739.173751 160.644295C739.173751 177.091675 752.507132 190.425056 768.954512 190.425056 785.401891 190.425056 798.735272 177.091675 798.735272 160.644295L798.735272 61.375093 898.004474 61.375093C914.451854 61.375093 927.785235 48.041712 927.785235 31.594333 927.785235 15.146953 914.451854 1.813572 898.004474 1.813572ZM768.954512 254.950037C752.507132 254.950037 739.173751 268.283418 739.173751 284.730798L739.173751 835.67487 415.012081 835.67487C415.013608 835.547347 415.021626 835.420969 415.021626 835.293065L415.021626 604.683072C415.021626 588.235693 401.688245 574.902312 385.240865 574.902312L155.776286 574.902312 155.776286 59.847875 515.054437 59.847875C531.501817 59.847875 544.835198 46.514494 544.835198 30.067114 544.835198 13.619735 531.501817 0.286353 515.054437 0.286353L125.995526 0.286353C109.548146 0.286353 96.214765 13.619735 96.214765 30.067114L96.214765 653.935869C96.214765 658.587013 97.282291 662.988456 99.18406 666.910353 99.90567 669.173691 101.078574 671.213673 102.737515 672.913849L309.85087 885.162094C310.512919 885.911195 311.210476 886.627842 311.943541 887.306691L314.300802 889.722368C317.094849 892.585903 320.879296 894.10854 325.120764 894.389548 327.381429 894.938583 329.7406 895.236391 332.170022 895.236391L768.954512 895.236391C785.401891 895.236391 798.735272 881.90301 798.735272 865.45563L798.735272 284.730798C798.735272 268.283418 785.401891 254.950037 768.954512 254.950037ZM344.780647 835.67487 155.776286 641.984239 155.776286 634.463833 355.460104 634.463833 355.460104 835.293065C355.460104 835.420969 355.468122 835.547347 355.46965 835.67487L344.780647 835.67487Z"  horiz-adv-x="1024" />

    
    <glyph glyph-name="jiage0101" unicode="&#58938;" d="M805.859944 592.28552c-19.346371 0-38.658621-3.241455-58.004992-6.44879L747.854952 747.295331l0 0 0 0 0 0c0 96.902457-186.946678 148.561021-373.927476 148.561021C190.188133 899.097808 0 847.439244 0 750.536787l0-3.241455 0-662.109925c0-3.241455 0-9.690246 3.207335-12.931701L0 72.253705c0-96.902457 186.946678-148.561021 373.893355-148.561021 74.144028 0 148.288056 9.690246 209.534504 25.829282 61.246448-48.451229 138.597811-77.521966 219.190629-77.521966 199.844258 0 361.029895 161.492722 361.029895 361.746427C1163.648383 434.034253 1005.704202 592.28552 805.859944 592.28552L805.859944 592.28552zM373.893355 834.507543c193.395468 0 309.439573-54.900019 309.439573-83.970756 0-29.070737-116.044105-83.970756-309.439573-83.970756-193.395468 0-309.439573 54.900019-309.439573 83.970756C64.453782 779.607524 183.739343 834.507543 373.893355 834.507543L373.893355 834.507543zM64.453782 663.324575c70.902573-42.002438 190.188133-61.38293 309.439573-61.38293 119.28556 0 238.537 22.621947 309.439573 61.38293l0-93.661002c-64.453782-22.621947-122.492895-64.590265-164.392972-119.490284-41.900077-6.44879-90.248944-12.931701-145.046601-12.931701-193.395468 0-309.439573 54.900019-309.439573 83.970756L64.453782 663.324575 64.453782 663.324575zM64.453782 437.241588c70.902573-42.002438 190.188133-61.38293 309.439573-61.38293 35.451286 0 70.902573 3.241455 103.146524 6.44879-19.346371-45.209773-32.243952-96.902457-32.243952-148.561021l0-16.139036c-22.553706-3.207335-45.141532-3.207335-70.902573-3.207335-193.395468 0-309.439573 54.900019-309.439573 83.970756L64.453782 437.241588 64.453782 437.241588zM64.453782 72.287826 64.453782 72.287826l0 12.931701 0 125.973195c70.902573-42.002438 190.188133-61.38293 309.439573-61.38293 25.795161 0 54.797657 0 80.592818 3.241455 12.897581-58.141474 38.692742-109.800038 74.144028-151.802476-45.141532-9.690246-96.697734-12.931701-154.736847-12.931701C183.739343-14.924386 64.453782 39.975633 64.453782 72.287826L64.453782 72.287826zM805.859944-66.61707c-164.392972 0-296.541992 132.421985-296.541992 297.156163 0 138.870775 96.697734 258.39518 228.846754 287.431796 3.207335 0 6.44879 0 9.690246 3.241455l0 0c19.346371 3.241455 38.692742 6.44879 58.004992 6.44879 164.392972 0 296.541992-132.421985 296.541992-297.122042C1102.401936 69.04637 970.252915-66.61707 805.859944-66.61707L805.859944-66.61707zM805.859944-66.61707M915.455258 392.031815l-38.692742 22.621947-64.453782-122.731739-64.453782 122.731739-38.692742-22.621947 54.797657-103.351248-93.490399 0 0-61.38293 116.044105 0 0-25.829282L670.469468 201.468355l0-51.692684 116.044105 0 0-87.212212 58.004992 0 0 87.212212 106.38798 0 0 51.692684-106.38798 0 0 25.829282 106.38798 0 0 61.38293-90.248944 0L915.455258 392.031815zM915.455258 392.031815"  horiz-adv-x="1164" />

    
    <glyph glyph-name="menu" unicode="&#58882;" d="M337.207 425.089h-132.806c-74.393 0-134.917 60.523-134.917 134.917l0 132.806c0 74.392 60.523 134.916 134.917 134.916h132.805c74.392 0 134.916-60.522 134.916-134.916l0-132.806c0.001-74.393-60.522-134.917-134.915-134.917zM204.4 770.384c-42.773 0-77.573-34.799-77.573-77.572v-132.806c0-42.773 34.799-77.573 77.573-77.573h132.805c42.773 0 77.572 34.799 77.572 77.573v132.806c0 42.773-34.799 77.572-77.572 77.572h-132.805zM651.895 430.211l-93.907 93.907c-52.603 52.603-52.605 138.197 0 190.801l93.908 93.908c52.603 52.603 138.196 52.604 190.801-0.001l93.907-93.907c52.603-52.603 52.605-138.196 0.001-190.801l-93.908-93.908c-52.604-52.604-138.197-52.605-190.801 0zM802.148 768.279c-30.245 30.245-79.459 30.246-109.704 0.001l-93.908-93.908c-30.245-30.245-30.246-79.459 0-109.705l93.907-93.907c30.245-30.245 79.459-30.246 109.705 0l93.908 93.908c30.245 30.245 30.245 79.458-0.001 109.704l-93.907 93.907zM337.207-59.728h-132.806c-74.393 0-134.917 60.523-134.917 134.917l0 132.804c0 74.393 60.523 134.918 134.917 134.918h132.805c74.392 0 134.916-60.523 134.916-134.918v-132.804c0.001-74.393-60.522-134.917-134.915-134.917zM204.4 285.567c-42.773 0-77.573-34.8-77.573-77.574v-132.804c0-42.773 34.799-77.573 77.573-77.573h132.805c42.773 0 77.572 34.799 77.572 77.573v132.804c0 42.773-34.799 77.574-77.572 77.574h-132.805zM819.6-59.728h-132.804c-74.392 0-134.917 60.523-134.917 134.917l-0 132.804c0 74.393 60.523 134.918 134.917 134.918h132.804c74.392 0 134.917-60.523 134.917-134.918v-132.804c0-74.393-60.523-134.917-134.917-134.917zM686.795 285.567c-42.773 0-77.573-34.8-77.573-77.574v-132.804c0-42.773 34.799-77.573 77.573-77.573h132.804c42.773 0 77.573 34.799 77.573 77.573l0 132.804c0 42.773-34.799 77.574-77.573 77.574h-132.804z"  horiz-adv-x="1024" />

    
    <glyph glyph-name="shujia-2" unicode="&#58905;" d="M233.472 485.376h-126.976v-51.2h126.976v51.2zM436.224 435.2h151.552v51.2h-151.552v-51.2zM436.224 282.624h151.552v51.2h-151.552v-51.2zM106.496 282.624h126.976v51.2h-126.976v-51.2zM5.12 764.928v-762.88c0-41.984 33.792-75.776 75.776-75.776h177.152v51.2h-151.552c-27.648 0-50.176 22.528-50.176 51.2v710.656c0 27.648 22.528 51.2 50.176 51.2h151.552v51.2h-177.152c-41.984 0-75.776-34.816-75.776-76.8zM233.472 637.952h-126.976v-51.2h126.976v51.2zM436.224 587.776h151.552v51.2h-151.552v-51.2zM790.528 435.2h126.976v51.2h-126.976v-51.2zM790.528 282.624h126.976v51.2h-126.976v-51.2zM917.504 637.952h-126.976v-51.2h126.976v51.2zM638.976 867.328h-253.952c-41.984 0-75.776-33.792-75.776-75.776v-813.056c0-41.984 33.792-75.776 75.776-75.776h253.952c41.984 0 75.776 33.792 75.776 75.776v812.032c0 41.984-33.792 76.8-75.776 76.8zM663.552 3.072c0-27.648-22.528-51.2-50.176-51.2h-202.752c-27.648 0-50.176 22.528-50.176 51.2v761.856c0 27.648 22.528 51.2 50.176 51.2h202.752c27.648 0 50.176-22.528 50.176-51.2v-761.856zM943.104 841.728h-177.152v-51.2h177.152c27.648 0 25.6-22.528 25.6-51.2v-711.68c0-27.648 3.072-51.2-25.6-51.2h-177.152v-51.2h177.152c41.984 0 75.776 33.792 75.776 75.776v763.904c0 41.984-33.792 76.8-75.776 76.8z"  horiz-adv-x="1024" />

    
    <glyph glyph-name="taizhanshebei" unicode="&#58932;" d="M633.6 12.8h-112v128h28.8c-9.6 22.4-16 44.8-22.4 64H102.4c-19.2 0-38.4 3.2-38.4 22.4v22.4h454.4v19.2c0 12.8 0 22.4 3.2 44.8H64V723.2c0 9.6 6.4 16 12.8 22.4 6.4 3.2 19.2 6.4 25.6 6.4h700.8c9.6 0 22.4-9.6 22.4-32v-188.8c22.4-3.2 41.6-12.8 64-19.2V723.2c0 41.6-32 96-73.6 96H102.4c-22.4 0-51.2-12.8-70.4-28.8-16-19.2-32-44.8-32-67.2v-492.8c0-48 28.8-86.4 102.4-86.4h243.2v-128H278.4c-9.6 0-16-3.2-22.4-9.6-6.4-6.4-9.6-12.8-9.6-22.4 0-9.6 3.2-16 9.6-22.4 6.4-6.4 12.8-9.6 22.4-9.6h355.2c9.6 0 16 3.2 22.4 9.6 6.4 6.4 9.6 12.8 9.6 22.4 0 9.6-3.2 16-9.6 22.4-6.4 3.2-12.8 6.4-22.4 6.4z m-153.6 0h-64v128h64v-128zM784 348.8c-44.8 0-80-35.2-80-80s35.2-80 80-80S864 224 864 268.8s-35.2 80-80 80z m0-118.4c-22.4 0-38.4 16-38.4 38.4s16 38.4 38.4 38.4 38.4-16 38.4-38.4-19.2-38.4-38.4-38.4zM1004.8 224c12.8 12.8 19.2 28.8 19.2 44.8 0 35.2-28.8 64-64 64-3.2 6.4-3.2 9.6-6.4 16 12.8 12.8 19.2 28.8 19.2 44.8 0 16-6.4 32-19.2 44.8-25.6 25.6-64 25.6-89.6 0-6.4 3.2-9.6 3.2-16 6.4 0 35.2-28.8 64-64 64s-64-28.8-64-64c-6.4-3.2-9.6-3.2-16-6.4-25.6 25.6-67.2 25.6-89.6 0-12.8-12.8-19.2-28.8-19.2-44.8 0-16 6.4-32 19.2-44.8-3.2-6.4-3.2-9.6-6.4-16-16 0-32-6.4-44.8-19.2-12.8-12.8-19.2-28.8-19.2-44.8 0-16 6.4-32 19.2-44.8 12.8-12.8 28.8-19.2 44.8-19.2 3.2-6.4 3.2-9.6 6.4-16-12.8-12.8-19.2-28.8-19.2-44.8 0-16 6.4-32 19.2-44.8 12.8-12.8 28.8-19.2 44.8-19.2 16 0 32 6.4 44.8 19.2 6.4-3.2 9.6-3.2 16-6.4 0-16 6.4-32 19.2-41.6 12.8-12.8 28.8-12.8 44.8-12.8 35.2 0 64 25.6 64 57.6 6.4 3.2 9.6 0 16 3.2 25.6-25.6 67.2-25.6 89.6 0 12.8 12.8 19.2 28.8 19.2 44.8s-6.4 32-19.2 44.8c3.2 6.4 3.2 9.6 6.4 16 16 0 32 6.4 44.8 19.2z m-67.2 22.4c-6.4-3.2-9.6-6.4-9.6-12.8-3.2-16-9.6-28.8-16-41.6-3.2-6.4-3.2-12.8-3.2-16 0-6.4 6.4-9.6 12.8-12.8 3.2 0 3.2-3.2 6.4-3.2 3.2-3.2 6.4-9.6 6.4-16s-3.2-9.6-6.4-16c-9.6-9.6-22.4-9.6-28.8 0 0 0-3.2 3.2-3.2 6.4-3.2 6.4-6.4 9.6-12.8 12.8-6.4 3.2-12.8 0-16-3.2-12.8-6.4-25.6-12.8-41.6-16-6.4 0-9.6-6.4-12.8-9.6-3.2-6.4-3.2-12.8 0-16v-6.4c0-12.8-9.6-22.4-19.2-22.4-6.4 0-9.6 3.2-16 6.4-3.2 3.2-6.4 9.6-6.4 16v6.4c3.2 6.4 0 12.8 0 16-3.2 6.4-6.4 9.6-12.8 9.6-16 3.2-28.8 9.6-41.6 16-3.2 3.2-6.4 3.2-12.8 3.2-3.2 0-3.2 0-6.4-3.2-6.4 0-9.6-6.4-12.8-12.8 0-3.2-3.2-3.2-3.2-6.4-3.2-3.2-9.6-6.4-16-6.4s-9.6 3.2-16 6.4c-3.2 3.2-6.4 9.6-6.4 16s3.2 9.6 6.4 16c0 0 3.2 3.2 6.4 3.2 6.4 3.2 9.6 6.4 12.8 12.8 3.2 6.4 0 12.8-3.2 16-6.4 12.8-12.8 25.6-16 41.6 0 6.4-6.4 9.6-9.6 12.8-6.4 3.2-12.8 3.2-16 0h-6.4c-6.4 0-9.6 3.2-16 6.4-3.2 3.2-6.4 9.6-6.4 16s3.2 9.6 6.4 16c3.2 3.2 9.6 6.4 16 6.4h6.4c6.4-3.2 12.8 0 16 0 6.4 3.2 9.6 6.4 9.6 12.8 3.2 16 9.6 28.8 16 41.6 3.2 6.4 3.2 12.8 3.2 16 0 6.4-6.4 9.6-12.8 12.8-3.2 0-3.2 3.2-6.4 3.2-3.2 3.2-6.4 9.6-6.4 16s3.2 9.6 6.4 16c9.6 9.6 22.4 9.6 28.8 0 0 0 3.2-3.2 3.2-6.4 3.2-6.4 6.4-9.6 12.8-12.8 6.4-3.2 12.8 0 16 3.2 12.8 6.4 25.6 12.8 38.4 16 6.4 0 9.6 6.4 12.8 9.6 3.2 6.4 3.2 12.8 0 16v6.4c0 12.8 9.6 22.4 22.4 22.4s22.4-9.6 22.4-22.4v-6.4c-3.2-6.4 0-12.8 0-16 3.2-6.4 6.4-9.6 12.8-9.6 16-3.2 28.8-9.6 41.6-16 6.4-3.2 12.8-3.2 16-3.2 6.4 0 9.6 6.4 12.8 12.8 0 3.2 3.2 3.2 3.2 6.4 9.6 9.6 22.4 9.6 28.8 0 3.2-3.2 6.4-9.6 6.4-16s-3.2-9.6-6.4-16c0 0-3.2-3.2-6.4-3.2-6.4-3.2-9.6-6.4-12.8-12.8-3.2-6.4 0-12.8 3.2-16 6.4-12.8 12.8-25.6 16-41.6 0-6.4 6.4-9.6 9.6-12.8 6.4-3.2 12.8-3.2 16 0h6.4c9.6 0 22.4-9.6 22.4-19.2 0-6.4-3.2-9.6-6.4-16-3.2-3.2-9.6-6.4-16-6.4h-6.4c0 3.2-6.4 3.2-9.6 0zM784 35.2z"  horiz-adv-x="1024" />

    
    <glyph glyph-name="caigou" unicode="&#58941;" d="M867.84 49.152c-9.216-24.064-11.776-74.24-62.464-74.24H242.688c-41.472 0-55.296 35.84-59.904 74.24L113.152 518.656c-2.048 13.824 8.704 26.112 22.528 26.112h0.512c11.264 0 20.992-8.192 22.528-19.456l78.848-487.936c2.048-11.264 11.264-19.456 22.528-19.456h530.944c11.264 0 20.992 8.192 22.528 19.456l78.848 487.936c2.048 11.264 11.264 19.456 22.528 19.456h0.512c13.824 0 24.576-12.288 22.528-26.112l-70.144-469.504z m-144.384 100.352H326.656c-24.576 0-42.496 22.016-42.496 46.592V717.312c0 26.624 19.968 46.592 42.496 46.592h399.36c22.528 0 42.496-19.456 39.936-46.592v-521.216c0-27.136-19.968-46.592-42.496-46.592z m-372.224 176.128l348.672 3.072c12.288 0 22.528 10.24 22.528 22.528V434.176c0 12.8-10.24 23.04-23.04 23.04h-348.16c-12.8 0-23.04-10.24-23.04-23.04v-85.504c0-12.8 10.24-23.04 23.04-23.04z m-22.528 366.592v-37.888c0-12.8 10.24-23.04 23.04-23.04l348.672 0.512c12.288 0 22.528 10.24 23.04 22.528l0.512 36.864c0 12.8-10.24 23.04-23.04 23.04H351.232c-12.288 1.024-22.528-9.216-22.528-22.016z m371.2-103.936H351.232c-12.8 0-23.04-10.24-23.04-23.04v-41.984c0-12.8 10.24-23.04 23.04-23.04h349.696c12.288 0 22.528-9.728 23.04-22.016l-1.024 87.04c0 13.312-10.24 23.04-23.04 23.04z m0-303.616h-348.16c-12.8 0-23.04-10.24-23.04-23.04v-40.448c0-12.8 10.24-23.04 23.04-23.04h349.184c12.8 0 23.04 10.752 23.04 23.552l-0.512 40.448c-1.024 12.288-11.264 22.528-23.552 22.528z"  horiz-adv-x="1024" />

    
    <glyph glyph-name="xiala1" unicode="&#59106;" d="M512 33.177l512 639.974H0l512-639.974"  horiz-adv-x="1024" />

    
    <glyph glyph-name="zuanshi" unicode="&#58883;" d="M1019.308 551.988c-63.239 89.925-126.481 179.889-189.725 269.834-5.632 8.895-15.853 15.206-26.348 15.206l-606.544-0c-9.405 0-16.522-3.525-21.413-8.846-0.164-0.169-0.326-0.336-0.49-0.51-0.059-0.075-0.124-0.143-0.187-0.218-1.477-1.599-2.871-3.407-4.133-5.46-55.415-89.998-110.81-180.021-166.224-270.005-7.162-11.641-4.638-25.412 3.261-34.773 0.47-0.698 0.961-1.387 1.485-2.054 156.873-200.654 313.73-401.362 470.592-602.010 6.86-8.781 15.217-11.544 23.126-10.316 6.86-0.010 13.871 2.999 19.839 10.316 163.991 200.648 328.010 401.356 492.005 602.010 0.846 1.034 1.605 2.109 2.312 3.207 7.598 9.4 10.162 22.641 2.446 33.62v0zM934.67 567.041h-186.997c21.364 58.275 42.721 116.556 64.086 174.831 40.97-58.27 81.935-116.552 122.911-174.831v0zM501.030 761.993c44.505-64.973 89.008-129.965 133.513-194.952h-271.125c45.867 64.987 91.731 129.97 137.612 194.952v0zM660.872 506.276c-53.013-144.616-106.032-289.231-159.035-433.868-51.549 145.086-103.29 289.801-156.948 433.868h315.983zM691.819 590.697c-42.367 61.85-84.728 123.707-127.088 185.567h195.104c-22.669-61.855-45.346-123.714-68.015-185.567v0zM310.662 597.304c-22.682 59.786-45.762 119.441-69.359 178.959h195.669c-42.103-59.646-84.208-119.302-126.311-178.959v0zM190.933 739.342c22.586-57.31 44.703-114.748 66.467-172.296l-172.538 0c35.361 57.433 70.72 114.868 106.071 172.296v0zM280.245 506.276c55.512-148.605 108.931-297.91 162.123-447.594-116.629 149.196-233.253 298.395-349.863 447.594l187.74 0zM725.399 506.276h203.816c-123.207-150.749-246.401-301.493-369.594-452.232 55.251 150.744 110.516 301.487 165.778 452.232v0zM725.399 506.276z"  horiz-adv-x="1024" />

    
    <glyph glyph-name="yuangongliebiao" unicode="&#59005;" d="M290.3 97.3c17.7 0 32 14.3 32 32 0 108.2 81.6 189.8 189.8 189.8 104.7 0 189.8-85.2 189.8-189.8 0-17.7 14.3-32 32-32s32 14.3 32 32c0 33.7-6.5 66.5-19.4 97.5C734 257 716 284.2 693 307.6c-26.2 26.6-57.2 46.7-91.3 59.5 46.1 30.1 77.3 82.2 77.3 140 0 90.5-76.5 167-167 167s-167-76.5-167-167c0-57.6 30.9-109.4 76.7-139.6-34-12.3-64.8-31.7-90.5-57.4-47.1-47.1-73.1-111.3-73.1-180.8 0.2-17.6 14.5-32 32.2-32z m221.8 512.8c54.9 0 103-48.1 103-103s-48.1-103-103-103-103 48.1-103 103 48.1 103 103 103zM864.2 832H160c-35.3 0-64-28.7-64-64v-767.6c0-35.3 28.7-64 64-64h704.1c35.3 0 64 28.7 64 64V768c0.1 35.4-28.6 64-63.9 64z m0-831.6H160V768h704.1v-767.6z"  horiz-adv-x="1024" />

    
    <glyph glyph-name="dianxuanweixuan" unicode="&#58933;" d="M512 839.111111C261.688889 839.111111 56.888889 634.311111 56.888889 384s204.8-455.111111 455.111111-455.111111 455.111111 204.8 455.111111 455.111111S762.311111 839.111111 512 839.111111z m0-853.333333c-219.022222 0-398.222222 179.2-398.222222 398.222222S292.977778 782.222222 512 782.222222s398.222222-179.2 398.222222-398.222222-179.2-398.222222-398.222222-398.222222z"  horiz-adv-x="1024" />

    
    <glyph glyph-name="dianxuanxuanzhong" unicode="&#58935;" d="M512 611.555556c-125.155556 0-227.555556-102.4-227.555556-227.555556s102.4-227.555556 227.555556-227.555556 227.555556 102.4 227.555556 227.555556-102.4 227.555556-227.555556 227.555556z m0 227.555555C261.688889 839.111111 56.888889 634.311111 56.888889 384s204.8-455.111111 455.111111-455.111111 455.111111 204.8 455.111111 455.111111S762.311111 839.111111 512 839.111111z m0-853.333333c-219.022222 0-398.222222 179.2-398.222222 398.222222S292.977778 782.222222 512 782.222222s398.222222-179.2 398.222222-398.222222-179.2-398.222222-398.222222-398.222222z"  horiz-adv-x="1024" />

    
    <glyph glyph-name="jianqu" unicode="&#59479;" d="M512.002047 891.45652c-280.264125 0-507.45652-227.196489-507.456521-507.45652s227.192396-507.45652 507.456521-507.45652c280.260032 0 507.452427 227.196489 507.452427 507.45652S792.262078 891.45652 512.002047 891.45652z m-0.565889-942.681949c-239.987816 0-434.542884 194.550974-434.542884 434.542884S271.447319 817.860339 511.436158 817.860339c239.996003 0 434.546977-194.550974 434.546977-434.542884S751.428068-51.225429 511.436158-51.225429zM257.660314 347.92027h508.229117v72.42552H257.660314v-72.42552z"  horiz-adv-x="1024" />

    
    <glyph glyph-name="quyumokuai" unicode="&#58906;" d="M305.146 526.901H139.333c-55.691 0-101 45.309-101 101V774.386c0 55.691 45.309 101 101 101h165.813c55.691 0 101-45.309 101-101v-146.485c0-55.691-45.308-101-101-101zM139.333 825.386c-28.122 0-51-22.878-51-51v-146.485c0-28.122 22.878-51 51-51h165.813c28.122 0 51 22.878 51 51V774.386c0 28.122-22.878 51-51 51H139.333zM880.846 526.901H715.032c-55.691 0-101 45.309-101 101V774.386c0 55.691 45.309 101 101 101h165.813c55.691 0 101-45.309 101-101v-146.485c0.001-55.691-45.308-101-100.999-101zM715.032 825.386c-28.121 0-51-22.878-51-51v-146.485c0-28.122 22.879-51 51-51h165.813c28.121 0 51 22.878 51 51V774.386c0 28.122-22.879 51-51 51H715.032zM880.846-110.565H715.032c-55.691 0-101 45.309-101 101V136.92c0 55.691 45.309 101 101 101h165.813c55.691 0 101-45.309 101-101v-146.485c0.001-55.692-45.308-101-100.999-101zM715.032 187.92c-28.121 0-51-22.879-51-51v-146.485c0-28.121 22.879-51 51-51h165.813c28.121 0 51 22.879 51 51V136.92c0 28.121-22.879 51-51 51H715.032zM301.085-111.565H135.272c-55.691 0-101 45.309-101 101V135.919c0 55.691 45.309 101 101 101h165.813c55.691 0 101-45.309 101-101v-146.484c0-55.692-45.308-101-101-101zM135.272 186.919c-28.122 0-51-22.879-51-51v-146.484c0-28.121 22.878-51 51-51h165.813c28.122 0 51 22.879 51 51V135.919c0 28.121-22.878 51-51 51H135.272zM393.075 730.891h236.01v-49.498h-236.01zM167.198 541.048h49.498v-319.13h-49.498zM806.493 541.048h49.498v-319.13h-49.498zM814.668 245.22L371.621 688.266l35 35 443.047-443.048zM619.93 76.27L189.776 506.423l35 35L654.931 111.27zM393.075 88.028h236.01v-49.498h-236.01z"  horiz-adv-x="1024" />

    
    <glyph glyph-name="kehuguanli" unicode="&#58893;" d="M818.29376 239.77472h-281.728a29.80864 29.80864 0 0 1-29.75744-29.75744c0-17.28512 12.49792-29.81888 29.75744-29.81888h281.728c15.5904 0 29.81888 14.19264 29.81888 29.81888 0 17.22368-12.50816 29.75744-29.81888 29.75744zM818.29376 105.85088h-281.728c-16.39424 0-29.75744-13.3632-29.75744-29.81888 0-17.21856 12.49792-29.75744 29.75744-29.75744h281.728c16.45568 0 29.81888 13.3632 29.81888 29.75744 0 17.28-12.50816 29.81888-29.81888 29.81888zM898.41152 346.0352h-205.1072c-39.35232 38.33344-87.95648 67.28704-142.27456 84.9664 56.95488 41.36448 92.32384 108.60032 92.32384 179.33824 0 120.8064-97.61792 219.136-217.62048 219.136-119.94112-0.0256-217.55392-99.00544-217.55392-220.672 0-71.74144 34.29888-137.37472 91.3152-178.176C160.81408 384.96768 66.56 267.81696 66.56 136.10496a29.80864 29.80864 0 0 1 29.75744-29.75744c17.21856 0 29.75744 12.53376 29.75744 29.81888 0 139.75552 135.14752 253.48608 301.2352 253.48608 59.50976 0 117.03808-15.2576 166.08768-43.62752H473.50784c-42.7008 0-77.50656-34.81088-77.50656-77.50656v-252.47744c0-43.44832 34.05824-77.50656 77.50656-77.50656h406.36416c42.76224 0 77.57312 34.81088 77.57312 77.50656v252.47744c0.01024 67.45088-36.992 77.5168-59.0336 77.5168zM425.74336 768.34304c85.64224 0 158.06976-73.07776 158.06976-159.62112 0-81.54112-60.5184-149.76-138.4192-158.55104-13.07136 0.71168-28.44672 0.73728-36.88448-0.06144-80.27136 8.81664-140.8256 76.99456-140.8256 158.59712-0.0256 88.04864 70.89152 159.63648 158.05952 159.63648z m470.59456-499.8144v-252.47744c0-9.37984-7.86432-17.9712-16.45568-17.9712H473.49248c-9.37984 0-16.45568 7.75168-16.45568 17.9712v252.47744c0 9.37984 7.86432 17.9712 16.45568 17.9712h406.36416c9.41568-0.04096 16.48128-7.76704 16.48128-17.9712z"  horiz-adv-x="1024" />

    
    <glyph glyph-name="xuanfuanniutiaochabiaozichanfuzhaiyushoukuanxiang" unicode="&#59107;" d="M503.466667-5.688889c-31.288889 0-56.888889 8.533333-82.488889 31.288889l-267.377778 250.311111c-11.377778 14.222222-17.066667 31.288889-17.066667 51.2 0 34.133333 22.755556 65.422222 54.044445 73.955556 5.688889 2.844444 14.222222 2.844444 19.911111 2.844444h39.822222V634.311111c0 28.444444 8.533333 51.2 22.755556 65.422222 14.222222 17.066667 36.977778 25.6 65.422222 25.6h332.8c54.044444 0 88.177778-34.133333 88.177778-91.022222v-230.4h45.511111c17.066667 0 36.977778-8.533333 48.355555-25.6 14.222222-14.222222 19.911111-34.133333 19.911111-54.044444 0-17.066667-5.688889-34.133333-17.066666-48.355556l-2.844445-2.844444-264.533333-247.466667c-22.755556-19.911111-54.044444-31.288889-85.333333-31.288889zM210.488889 358.4h-5.688889c-11.377778-2.844444-19.911111-17.066667-19.911111-31.288889 0-8.533333 2.844444-14.222222 8.533333-19.911111l261.688889-244.622222c14.222222-11.377778 31.288889-17.066667 51.2-17.066667s36.977778 5.688889 51.2 19.911111l261.688889 247.466667c2.844444 5.688889 5.688889 11.377778 5.688889 19.911111 0 8.533333-2.844444 17.066667-8.533333 22.755556-5.688889 5.688889-11.377778 8.533333-17.066667 8.533333H711.111111V634.311111c0 36.977778-17.066667 45.511111-39.822222 45.511111H338.488889c-19.911111 0-25.6-5.688889-31.288889-8.533333-5.688889-5.688889-8.533333-17.066667-8.533333-34.133333v-275.911112H210.488889v-2.844444z m403.911111 159.288889l-5.688889 5.688889c-5.688889 8.533333-19.911111 8.533333-25.6 0l-76.8-71.111111-82.488889 68.266666c-8.533333 5.688889-19.911111 5.688889-25.6-2.844444l-5.688889-5.688889c-5.688889-8.533333-5.688889-19.911111 2.844445-25.6l54.044444-45.511111h-34.133333c-11.377778 0-19.911111-8.533333-19.911111-19.911111v-8.533334c0-11.377778 8.533333-19.911111 19.911111-19.911111H483.555556v-28.444444h-68.266667c-11.377778 0-19.911111-8.533333-19.911111-19.911111v-8.533334c0-11.377778 8.533333-19.911111 19.911111-19.911111H483.555556v-88.177777c0-11.377778 8.533333-19.911111 19.911111-19.911112h8.533333c11.377778 0 19.911111 8.533333 19.911111 19.911112v88.177777h59.733333c11.377778 0 19.911111 8.533333 19.911112 19.911111v8.533334c0 11.377778-8.533333 19.911111-19.911112 19.911111h-59.733333v28.444444h59.733333c11.377778 0 19.911111 8.533333 19.911112 19.911111v8.533334c0 11.377778-8.533333 19.911111-19.911112 19.911111h-28.444444l54.044444 48.355555c2.844444 8.533333 5.688889 22.755556-2.844444 28.444445z"  horiz-adv-x="1024" />

    
    <glyph glyph-name="fankui" unicode="&#58880;" d="M715.861 502.556c-13.34 13.34-34.958 13.34-48.299 0l-84.48-84.48-84.48 84.48c-13.34 13.34-34.93 13.34-48.27 0s-13.34-34.93 0-48.27l84.48-84.48-84.48-84.48c-13.34-13.34-13.34-34.958 0-48.27 13.34-13.34 34.93-13.34 48.27 0l84.48 84.48 84.48-84.48c13.34-13.34 34.958-13.34 48.299-0.028 13.312 13.34 13.312 34.958 0 48.299l-84.48 84.48 84.48 84.48c13.312 13.34 13.312 34.93 0 48.27v0zM583.083 796.473c-235.634 0-426.667-191.033-426.667-426.667 0-235.634 191.033-426.667 426.667-426.667 235.662 0 426.667 191.033 426.667 426.667-0 235.634-191.033 426.667-426.667 426.667v0zM583.083 11.406c-197.916 0-358.4 160.455-358.4 358.4 0 197.916 160.484 358.4 358.4 358.4 197.945 0 358.4-160.484 358.4-358.4 0-197.945-160.455-358.4-358.4-358.4v0zM583.083 11.406z"  horiz-adv-x="1114" />

    
    <glyph glyph-name="kehuguanli1" unicode="&#59103;" d="M776.898 495.337c40.442 26.898 67.122 72.84 67.122 125.035 0 82.896-67.196 150.115-150.117 150.115-82.897 0-150.114-67.194-150.114-150.115 0-52.198 26.677-98.141 67.122-125.035-77.275-30.851-132.164-103.44-134.976-188.804 0 0 2.979-24.45 29.811-23.116 21.468-1.332 33.68 23.116 33.68 23.116 14.517 92.99 66.952 143.515 154.478 143.515 87.53 0 144.638-50.52 159.179-143.515 0 0 10.784-20.428 29.562-21.763 25.056-2.856 29.247 21.763 29.247 21.763-2.812 85.342-57.721 157.958-134.994 188.804z m-82.995 34.654c-49.919 0-90.386 40.465-90.386 90.384s40.467 90.385 90.386 90.385 90.385-40.466 90.385-90.385-40.466-90.384-90.385-90.384zM911.045 237.009v4.602c0 16.166-13.908 29.272-31.064 29.272s-31.064-13.112-31.064-29.272v-168.509c0-0.726 0.047-1.453 0.121-2.181H177.855V703.923l120.993-0.073a27.85 27.85 0 0 1 5.888-0.631h168.51c16.163 0 29.271 13.908 29.271 31.062 0 17.156-13.11 31.063-29.271 31.063H168.82c-27.525 0-49.82-22.291-49.82-49.822v-656.186c0-27.527 22.29-49.822 49.82-49.822h692.962c27.5 0 49.82 22.292 49.82 49.822l0.265 177.694-0.822-0.021zM256.271 542.518h168.51c16.164 0 29.272 13.908 29.272 31.063s-13.113 31.064-29.272 31.064h-168.51c-16.162 0-29.27-13.909-29.27-31.064s13.108-31.063 29.27-31.063z m-4.287-186.358h168.511c16.163 0 29.27 13.908 29.27 31.064 0 17.144-13.111 31.053-29.27 31.053H251.984c-16.163 0-29.27-13.909-29.27-31.053-0.004-17.156 13.107-31.064 29.27-31.064z m-29.274-168.8c0-16.749 12.796-30.315 28.571-30.315h464.142c15.773 0 28.571 13.566 28.571 30.315 0 16.747-12.798 30.314-28.571 30.314H251.281c-15.775 0-28.571-13.569-28.571-30.314z"  horiz-adv-x="1024" />

    
    <glyph glyph-name="gongyingshangmingxi" unicode="&#59077;" d="M499.705 290.465c42.823 0 46.845 0.082 53.696-50.454 4.985-36.783 11.082-73.82 15.052-110.736 1.057-9.83-2.087-17.713-8.691-25.418-58.305-68.047-61.4-68.055-123.336-4.372-10.49 10.786-14.662 21.759-12.85 36.392 4.98 40.193 13.588 80.745 19.02 120.765 4.254 31.338 17.557 33.959 36.434 33.959 6.832 0 13.778-0.136 20.675-0.136z m-35.869-151.898c-1.07-22.683 11.305-35.496 31.051-35.988 20.76-0.516 37.396 13.603 34.876 36.66-3.477 31.804-10.974 68.63-15.468 100.314-1.375 9.688-6.292 17.718-18.962 17.395-12.417-0.316-16.392-8.285-17.685-17.973-4.237-31.721-9.946-68.636-13.812-100.408zM76.513-18.92c-1.458-19.75 5.41-32.097 24.513-37.624 16.726-4.839 33.832-6.221 51.252-6.196 117.08 0.17 234.16 0.088 351.238 0.093V-18.48l-184.972-0.003c-53.599 0-119.487 0.622-173.07-0.31-19.346-0.335-25.62 7.732-22.826 27.791 17.753 127.512 96.022 279.58 271.564 320.526 29.613 6.908 64.975 9.658 100.095 9.658 127.57 0 230.579 80.3 255.958 199.336 22.45 105.309-34.177 216.186-136.158 266.601-97.218 48.06-208.716 28.865-279.775-48.162-93.394-101.24-83.541-275.212 21.737-364.53 18.113-15.368 16.376-17.434 1.351-23.233C203.215 309.657 112.057 196.76 82.268 39.148c-3.602-19.051-4.326-38.668-5.755-58.068z m244.093 601.288c-0.596 112.154 78.917 199.69 182.008 200.371 106.945 0.709 199.659-89.576 200.263-195.022 0.632-109.844-87.406-198.506-197.566-198.968-104.757-0.44-184.116 82.749-184.705 193.619zM785.723 45.465c-48.079-0.004-96.162-0.353-144.238 0.18-17.66 0.2-29.85-2.064-31.08-21.229-1.087-16.942 9.71-22.208 31.96-22.23 95.444-0.082 190.886 0.173 286.325-0.216 17.604-0.073 29.893 1.536 30.79 21.174 0.805 17.606-8.803 22.2-31.673 22.274-47.36 0.155-94.72 0.047-142.084 0.047z m-5.389 135.808c-40.164-0.004-80.342-0.47-120.497 0.208-18.225 0.304-29.979-3.17-29.81-22.084 0.166-19.1 12.524-21.584 30.448-21.468 79.613 0.5 159.235 0.47 238.848 0.022 18.109-0.1 29.949 2.98 29.78 22.087-0.166 19.29-12.588 21.731-30.426 21.437-39.435-0.65-78.889-0.202-118.343-0.202zM768.7 307.718c-36.5 0.005-73.007 0.155-109.51-0.057-19.965-0.111-30.56-6.142-29.324-22.513 1.328-17.592 12.021-20.963 29.126-20.881 72.29 0.366 144.586 0.275 216.875 0.085 17.12-0.047 27.942 3.553 27.876 21.666-0.064 17.811-10.237 22.019-27.677 21.816-35.787-0.405-71.577-0.12-107.366-0.116z"  horiz-adv-x="1024" />

    
    <glyph glyph-name="xinzengyonghu" unicode="&#58902;" d="M731.469 63.718h264.217c15.616 0 28.314-12.85 28.314-28.672 0-15.82-12.672-28.672-28.314-28.672H731.47c-15.616 0-28.314 12.852-28.314 28.672 0 15.821 12.672 28.672 28.314 28.672zM891.904 168.78v-267.468c0-15.82-12.698-28.672-28.314-28.672s-28.313 12.851-28.313 28.672V168.781c0 15.82 12.672 28.672 28.313 28.672 15.616 0 28.288-12.851 28.288-28.672zM70.758-106.7c0 228.044 184.781 412.876 412.698 412.876 99.712 0 191.13-35.354 262.477-94.234a385.218 385.218 0 0 0 72.294 30.26 483.328 483.328 0 0 1-178.38 108.876 294.733 294.733 0 0 1 138.393 250.01C778.24 763.955 646.246 896 483.456 896S188.672 763.955 188.672 601.088c0-105.395 55.296-197.862 138.394-250.01C136.832 286.054 0 105.677 0-106.7c0-3.942 0.077-7.859 0.154-11.776h70.784a419.891 419.891 0 0 0-0.18 11.776z m181.095 707.788c0 127.974 103.68 231.706 231.603 231.706 127.949 0 231.629-103.732 231.629-231.68a231.757 231.757 0 0 0-182.938-226.56 489.088 489.088 0 0 1-97.382 0 231.757 231.757 0 0 0-182.912 226.56z"  horiz-adv-x="1024" />

    
    <glyph glyph-name="shenhe" unicode="&#59002;" d="M640.132129 17.044645c127.735742 0 231.258839 102.532129 231.258839 229.012645 0 126.447484-103.523097 228.979613-231.258839 228.979613-127.735742 0-231.291871-102.532129-231.291871-228.979613 0-126.480516 103.556129-229.012645 231.291871-229.012645z m228.021677 44.725678a12.354065 12.354065 0 0 0 2.609549-1.981936l129.981935-128.660645c8.984774-8.91871 8.984774-33.197419 0-42.083097-8.984774-8.91871-33.527742-8.91871-42.512516 0l-129.981935 128.660645a12.288 12.288 0 0 0-1.981936 2.576516 294.945032 294.945032 0 0 0-186.136774-65.668129c-162.584774 0-294.350452 130.477419-294.350452 291.443613 0 160.933161 131.79871 291.410581 294.31742 291.410581 162.584774 0 294.383484-130.477419 294.383484-291.410581a288.437677 288.437677 0 0 0-66.328775-184.286967z m-38.48258 234.099612c-32.900129 106.562065-146.795355 166.515613-254.414452 133.945807l13.477161-43.569548c83.307355 25.236645 171.470452-21.20671 196.938323-103.688259l43.998968 13.312z m44.923871 478.670452v-250.450581h-69.830194V774.540387a29.795097 29.795097 0 0 1-29.927226 29.662968H116.273548c-16.516129 0-29.960258-13.278968-29.960258-29.662968v-632.237419c0-16.350968 13.411097-29.629935 29.960258-29.629936h201.761033v-69.136516H116.306581C61.175742 43.536516 16.516129 87.76671 16.516129 142.302968V774.573419C16.516129 829.109677 61.175742 873.339871 116.273548 873.339871h658.564129c55.097806 0 99.757419-44.230194 99.75742-98.766452z m-673.858065-98.766452H690.374194a34.584774 34.584774 0 1 0 0-69.169548H200.770065a34.584774 34.584774 0 1 0 0 69.136516z m0-207.44258h110.459871a34.584774 34.584774 0 1 0 0-69.169549H200.770065a34.584774 34.584774 0 1 0 0 69.169549z"  horiz-adv-x="1024" />

    
    <glyph glyph-name="tongji" unicode="&#58944;" d="M197.154133 378.743467V126.293333H70.912V378.743467h126.242133m0 63.112533H70.912a63.163733 63.163733 0 0 1-63.112533-63.112533V126.293333a63.1808 63.1808 0 0 1 63.112533-63.1296h126.242133A63.1808 63.1808 0 0 1 260.266667 126.293333V378.743467a63.163733 63.163733 0 0 1-63.112534 63.112533z m0 0M575.829333 820.548267V126.293333h-126.225066V820.548267h126.225066m0 63.095466h-126.225066a63.163733 63.163733 0 0 1-63.112534-63.112533V126.293333a63.1808 63.1808 0 0 1 63.112534-63.1296h126.225066a63.197867 63.197867 0 0 1 63.112534 63.1296V820.548267A63.163733 63.163733 0 0 1 575.829333 883.643733z m0 0M954.504533 631.1936V126.293333h-126.225066V631.1936h126.225066m0 63.112533h-126.225066a63.146667 63.146667 0 0 1-63.112534-63.112533V126.293333a63.1808 63.1808 0 0 1 63.112534-63.1296h126.225066a63.1808 63.1808 0 0 1 63.112534 63.1296V631.1936a63.163733 63.163733 0 0 1-63.112534 63.112533z m0 0M986.077867-63.044267H39.3728a31.522133 31.522133 0 0 0-31.556267 31.556267c0 17.4592 14.114133 31.573333 31.556267 31.573333h946.722133c17.425067 0 31.5392-14.097067 31.5392-31.573333a31.5392 31.5392 0 0 0-31.556266-31.556267z m0 0"  horiz-adv-x="1024" />

    
    <glyph glyph-name="shangxia" unicode="&#58927;" d="M512 0L192 307.2h640zM512 768L192 460.8h640z"  horiz-adv-x="1024" />

    
    <glyph glyph-name="home" unicode="&#58903;" d="M242.61333333333334 271.8122666666666c-35.92959999999999 0.011733333333333332-68.19839999999999 7.509333333333333-95.90719999999999 22.2848-0.24106666666666668 0.128-0.4810666666666667 0.26026666666666665-0.7178666666666667 0.3968l-0.9482666666666667 0.5429333333333334a203.78986666666665 203.78986666666665 0 0 0-106.38613333333332 178.90666666666667c0 21.0336 3.2693333333333334 41.967999999999996 9.716266666666666 62.24533333333333l0.008533333333333334-0.0021333333333333334c1.0837333333333334 3.1008 8.129066666666667 20.248533333333334 83.52106666666667 199.8784 8.397866666666667 23.725866666666665 23.672533333333334 43.40586666666666 44.21973333333334 56.95786666666667 20.218666666666664 13.334399999999999 45.12746666666667 20.382933333333334 72.03306666666667 20.382933333333334h529.9136c55.711999999999996-0.12373333333333333 102.48-31.375999999999998 119.41013333333333-79.68213333333333 66.84906666666666-167.59573333333333 76.71786666666667-192.97386666666668 78.51520000000001-198.1376l0.029866666666666666 0.0096c6.184533333333333-19.456 9.406933333333335-40.52373333333333 9.319466666666667-60.928v-0.0864c-0.0064-74.63786666666667-40.68906666666667-143.22773333333333-106.17066666666666-179.0069333333333-27.901866666666667-15.293866666666666-60.63466666666667-23.153066666666668-97.2576-23.344h-0.13866666666666666c-49.689600000000006 0-97.38773333333333 17.861333333333334-134.37973333333332 50.29333333333333l-1.1936 1.0464-1.1936-1.0474666666666665c-36.53653333333333-32.07893333333333-83.55733333333333-49.974399999999996-132.4032-50.38933333333333-0.20906666666666668-0.0032-0.4192-0.0010666666666666667-0.6282666666666666 0.0021333333333333334-49.06346666666666 0.3488-96.26559999999999 18.1952-132.93973333333332 50.26133333333333l-1.1946666666666668 1.0442666666666667-1.1914666666666667-1.0474666666666665c-36.942933333333336-32.468266666666665-84.51413333333333-50.432-133.94986666666668-50.5824l-0.0864 0.0010666666666666667z m-70.4704 69.16266666666667c19.832533333333334-10.491733333333334 43.53386666666667-15.816533333333332 70.45653333333333-15.829333333333333 36.508799999999994 0.12480000000000001 71.6096 13.373866666666666 98.84373333333333 37.309866666666665l18.750933333333332 16.48c10.049066666666667 8.830933333333332 25.08693333333333 8.8512 35.157333333333334 0.0448l18.79253333333333-16.432c27.062399999999997-23.662933333333335 61.95093333333333-36.827733333333335 98.24746666666667-37.08053333333333 35.97226666666666 0.3626666666666667 70.56213333333334 13.544533333333334 97.42933333333333 37.132799999999996l18.773333333333333 16.484266666666667c10.0608 8.831999999999999 25.1072 8.8384 35.1744 0.013866666666666666l18.7872-16.46933333333333c27.262933333333333-23.901866666666667 62.473600000000005-37.06453333333333 99.14986666666667-37.06453333333333 27.591466666666665 0.14293333333333333 51.79306666666666 5.794133333333334 71.86346666666667 16.795733333333335a150.6112 150.6112 0 0 1 78.4416 132.224v0.12906666666666666 0.12586666666666665c0.06933333333333333 14.824533333333333-2.2517333333333336 30.132266666666666-6.7157333333333336 44.29013333333333-3.4634666666666667 9.344-48.09386666666667 121.47626666666666-77.5776 195.3952-0.15893333333333332 0.3989333333333333-0.3093333333333333 0.8021333333333334-0.44906666666666667 1.2085333333333332-9.237333333333334 26.862933333333334-36.4224 44.266666666666666-69.2608 44.34026666666667H248.15359999999998c-32.751999999999995 0-56.861866666666664-15.4144-66.1472-42.2912-0.1877333333333333-0.544-0.3936-1.0816-0.6165333333333333-1.6128-31.205333333333332-74.34986666666667-78.1152-186.25279999999998-82.44586666666667-196.944-4.616533333333334-14.792533333333333-6.955733333333333-30.01493333333333-6.955733333333333-45.25546666666666a150.47786666666667 150.47786666666667 0 0 1 78.7712-132.20906666666667c0.18453333333333333-0.10026666666666667 0.3669333333333333-0.2016 0.5493333333333333-0.3061333333333333l0.8341333333333334-0.48z m597.5498666666666 187.1616H254.30720000000002c-14.727466666666666 0-26.666666666666668 11.9392-26.666666666666668 26.666666666666668s11.9392 26.666666666666668 26.666666666666668 26.666666666666668h515.3856c14.727466666666666 0 26.666666666666668-11.9392 26.666666666666668-26.666666666666668s-11.9392-26.666666666666668-26.666666666666668-26.666666666666668z m-560.5759999999999-573.5424c-60.2336 0-109.22346666666667 48.92693333333333-109.22346666666667 109.06773333333334l-0.22613333333333333 172.5504c-0.0192 14.728533333333333 11.904 26.682666666666666 26.631466666666665 26.701866666666668h0.0352c14.711466666666666 0 26.6464-11.915733333333332 26.666666666666668-26.631466666666665l0.22613333333333333-172.5856c0-30.767999999999997 25.064533333333333-55.7696 55.873066666666666-55.7696l606.1632 0.3829333333333333c30.71466666666667 0.06613333333333334 55.736533333333334 25.160533333333333 55.736533333333334 55.93706666666667l-0.064 175.69493333333332c-0.005333333333333333 14.727466666666666 11.929599999999999 26.670933333333334 26.657066666666665 26.676266666666667h0.0096c14.724266666666667 0 26.661333333333335-11.932799999999999 26.666666666666668-26.657066666666665l0.064-175.70453333333336c0-60.13013333333333-48.894933333333334-109.1488-108.99520000000001-109.28l-606.2207999999999-0.3829333333333333z"  horiz-adv-x="1024" />

    
    <glyph glyph-name="lurudingdan" unicode="&#58885;" d="M884.074534 469.227329c-17.172671 0-31.165217-13.992547-31.165217-31.165217v-388.61118c-3.180124-48.337888-19.080745-64.874534-69.962733-68.054659H219.428571c-70.598758 0-90.315528 14.628571-92.859627 73.142857V706.464596c3.180124 47.701863 19.71677 62.96646 73.778882 65.510559h536.168944c17.172671 0 31.165217 13.992547 31.165218 31.165218s-13.992547 31.165217-31.165218 31.165217H149.465839c-48.337888-2.544099-85.863354-42.613665-85.863355-91.587578v-45.793788h-1.272049v-686.906833c0-50.245963 40.70559-91.587578 91.587577-91.587577H139.925466v-0.636025h683.726708c50.245963 0 91.587578 40.70559 91.587578 91.587577v45.793789h0.636024v381.614907c-0.636025 18.44472-14.628571 32.437267-31.801242 32.437267z m-31.165217-488.467081z m-356.173913 618.21615H262.042236c-17.172671 0-31.165217-13.992547-31.165217-31.165218s13.992547-31.165217 31.165217-31.165217h234.693168c17.172671 0 31.165217 13.992547 31.165217 31.165217s-13.992547 31.165217-31.165217 31.165218z m228.968944-294.479504H262.042236c-17.172671 0-31.165217-13.992547-31.165217-31.165217s13.992547-31.165217 31.165217-31.165217h463.662112c17.172671 0 31.165217 13.992547 31.165217 31.165217s-13.992547 31.165217-31.165217 31.165217z m268.402484 496.735404c-16.536646 16.536646-43.249689 16.536646-60.42236 0l-349.813665-345.997515c-16.536646-16.536646-16.536646-43.249689 0-60.422361 16.536646-16.536646 43.249689-16.536646 60.422361 0l349.813664 345.997516c16.536646 16.536646 16.536646 43.885714 0 60.42236zM254.409938 387.180124h249.957764c13.356522 0 23.532919 13.992547 23.532919 31.165218s-10.812422 31.165217-23.532919 31.165217H254.409938c-13.356522 0-23.532919-13.992547-23.532919-31.165217S241.053416 387.180124 254.409938 387.180124z m471.29441-230.240994H262.042236c-17.172671 0-31.165217-13.992547-31.165217-31.165217s13.992547-31.165217 31.165217-31.165217h463.662112c17.172671 0 31.165217 13.992547 31.165217 31.165217s-13.992547 31.165217-31.165217 31.165217z"  horiz-adv-x="1024" />

    
    <glyph glyph-name="xinzengjiaose" unicode="&#59299;" d="M921.9 175.132l-63.855 0.124-0.248 61.476c-0.088 17.069-13.998 30.978-31.068 31.067-17.068 0.1-30.818-13.653-30.729-30.729l0.568-61.699-62.941 0.123c-17.061 0.092-30.818-12.705-30.719-29.771 0.08-17.06 13.998-30.978 31.066-31.067l63.164-0.448 0.576-62.514c0.092-17.06 13.037-30.968 30.1-31.06a30.494 30.494 0 0 1 30.73 30.73l-0.256 62.414 63.961-0.45c17.053-0.109 30.813 13.654 30.729 30.724-0.095 17.066-14.013 30.984-31.078 31.08zM565.746 298.525H780.52c15.494 0 28.053 12.563 28.053 28.053s-12.559 28.053-28.053 28.053H565.746c-15.488 0-28.051-12.563-28.051-28.053s12.563-28.053 28.051-28.053zM565.746 522.945H780.52c15.494 0 28.053 12.561 28.053 28.053 0 15.493-12.559 28.053-28.053 28.053H565.746c-15.488 0-28.051-12.56-28.051-28.053 0-15.492 12.563-28.053 28.051-28.053zM565.746 410.737h158.668c15.496 0 28.053 12.563 28.053 28.053s-12.557 28.053-28.053 28.053H565.746c-15.488 0-28.051-12.563-28.051-28.053s12.563-28.053 28.051-28.053zM339.434 398.188c61.689 0 111.724-49.875 111.994-111.5h0.006c0-13.256 10.745-24 24-24s24 10.744 24 24c0 0.203-0.011 0.406-0.016 0.609-0.414 60.852-34.796 113.627-85.133 140.325 22.804 20.504 37.148 50.229 37.148 83.308 0 61.855-50.145 112-112 112s-112-50.145-112-112c0-33.079 14.345-62.804 37.148-83.308-50.506-26.785-84.954-79.825-85.142-140.934 0-13.256 10.745-24 24-24s24 10.744 24 24l-0.001 0.021c0.285 61.615 50.314 111.479 111.996 111.479z m0 176.742c35.346 0 64-28.653 64-64s-28.654-64-64-64c-35.347 0-64 28.653-64 64s28.653 64 64 64zM876.682 747.365H147.318c-46.399 0-84.158-37.759-84.158-84.157v-448.839c0-46.4 37.759-84.158 84.158-84.158h458.928v56.105H147.318c-15.479 0.031-28.022 12.57-28.053 28.053V663.208c0 15.492 12.56 28.053 28.053 28.053h729.363c15.492 0 28.053-12.561 28.053-28.053v-308.577h56.105V663.208c0.001 46.398-37.757 84.157-84.157 84.157z"  horiz-adv-x="1024" />

    
    <glyph glyph-name="yuangongguanli" unicode="&#58907;" d="M909.19936 559.36512c-16.69632 0-30.27456 13.824-30.27456 30.88384V641.72544c0 56.6528-40.71424 102.84032-90.8032 102.84032H243.31776c-50.05824 0-90.8032-46.18752-90.8032-102.84032v-535.09632c0-56.68352 40.74496-102.84032 90.8032-102.84032h121.07776c16.69632 0 30.27456-13.824 30.27456-30.88384 0-17.02912-13.57824-30.85312-30.27456-30.85312H243.31776c-83.42016 0-151.32672 73.77408-151.32672 164.57216V641.72544c0 90.74176 67.90656 164.57216 151.32672 164.57216H788.1216c83.4816 0 151.35744-73.8304 151.35744-164.57216v-51.4816c0-17.05984-13.55264-30.87872-30.27968-30.87872zM213.0688 343.31136c0 17.02912 13.55264 30.85312 30.24896 30.85312h181.60128c16.72704 0 30.27456-13.824 30.27456-30.85312 0-17.02912-13.55264-30.88384-30.27456-30.88384H243.31776c-16.69632 0-30.24896 13.85472-30.24896 30.88384z m0 185.20064c0 17.02912 13.55264 30.85312 30.24896 30.85312h242.15552c16.69632 0 30.24896-13.824 30.24896-30.85312 0-17.05984-13.55264-30.88384-30.24896-30.88384H243.31776c-16.69632 0-30.24896 13.824-30.24896 30.88384z m439.12192-316.68224c-45.79328 33.664-75.91936 88.17152-75.91936 149.99552 0 102.08256 81.4848 185.16992 181.60128 185.16992s181.60128-83.08736 181.60128-185.16992c0-61.824-30.1568-116.33152-75.91936-149.99552 96.60928-49.12128 166.72256-157.91616 166.72256-251.25888 0-17.05984-13.55264-30.88384-30.27456-30.88384-16.69632 0-30.24896 13.824-30.24896 30.88384 0 85.35552-94.94528 216.05376-211.88096 216.05376-116.9664 0-211.88096-130.69824-211.88096-216.05376 0-17.05984-13.55264-30.88384-30.27456-30.88384-16.69632 0-30.24896 13.824-30.24896 30.88384 0.00512 93.3376 70.1184 202.1376 166.72256 251.25888z m226.73408 149.9904c0 68.08576-54.23104 123.43808-121.04704 123.43808-66.84672 0-121.07776-55.35232-121.07776-123.43808 0-68.17792 54.23104-123.4688 121.07776-123.4688 66.81088 0 121.04704 55.296 121.04704 123.4688z"  horiz-adv-x="1093" />

    
    <glyph glyph-name="tianjia" unicode="&#58881;" d="M510.00008279229627-101.95700940799986c-267.6644868551111 0-484.6498137884444 217.0290540088889-484.6498137884444 484.7280613451851S242.3355959371853 867.4830035626667 510.00008279229627 867.4830035626667c267.6667878968889 0 484.6521148302221-217.01294428918519 484.6521148302221-484.7119516254815S777.6668706891851-101.95700940799986 510.00008279229627-101.95700940799986zM510.00008279229627 806.8963101961482c-234.20901421511107 0-424.06772371911114-189.88632564622225-424.06772371911114-424.12525825896296S275.7910673635556-41.356508577185195 510.00008279229627-41.356508577185195s424.06772371911114 189.888626688 424.06772371911114 424.1275605143704S744.2090970074075 806.8963101961482 510.00008279229627 806.8963101961482zM691.7440495312592 352.47080152177784L540.2934288687408 352.47080152177784l0-151.4736359348148c0-16.721982501925925-13.56215819377778-30.28874399288889-30.291045034666663-30.28874399288889-16.728886840888887 0-30.28874399288889 13.566761490962962-30.28874399288889 30.28874399288889l0 151.4736359348148-151.45522395970372 0c-16.728886840888887 0-30.291045034666663 13.564459235555553-30.291045034666663 30.300250415407405 0 16.724283543703702 13.564459235555553 30.28874399288889 30.291045034666663 30.28874399288889l151.45522395970372 0 0 151.48054027377776c0 16.721982501925925 13.56215819377778 30.281839653925932 30.28874399288889 30.281839653925932 16.731187882666667 0 30.291045034666663-13.557554896592592 30.291045034666663-30.281839653925932l0-151.48054027377776 151.45062187614815 0c16.731187882666667 0 30.291045034666663-13.564459235555553 30.291045034666663-30.28874399288889C722.0350945659259 366.0352607573333 708.475237413926 352.47080152177784 691.7440495312592 352.47080152177784z"  horiz-adv-x="1024" />

    
    <glyph glyph-name="quyuxuanze" unicode="&#58915;" d="M853.333333-71.111111H170.666667a113.777778 113.777778 0 0 0-113.777778 113.777778V611.555556a113.777778 113.777778 0 0 0 113.777778 113.777777h284.444444a28.444444 28.444444 0 0 0 0-56.888889H170.666667a56.888889 56.888889 0 0 1-56.888889-56.888888v-568.888889a56.888889 56.888889 0 0 1 56.888889-56.888889h682.666666a56.888889 56.888889 0 0 1 56.888889 56.888889V611.555556a56.888889 56.888889 0 0 1-56.888889 56.888888h-28.444444a28.444444 28.444444 0 1 0 0 56.888889h28.444444a113.777778 113.777778 0 0 0 113.777778-113.777777v-568.888889a113.777778 113.777778 0 0 0-113.777778-113.777778z m-213.333333 398.222222a28.444444 28.444444 0 0 0-19.569778 7.68c-13.937778 13.368889-137.955556 131.128889-169.984 192.853333A215.438222 215.438222 0 0 0 426.666667 625.777778a213.105778 213.105778 0 0 0 311.864889 189.155555 213.048889 213.048889 0 0 0 90.794666-287.573333c-32.085333-61.724444-155.761778-179.2-169.699555-192.568889a28.444444 28.444444 0 0 0-19.626667-7.68z m0 455.111111a156.444444 156.444444 0 0 1-138.922667-228.408889c19.911111-38.4 94.947556-115.768889 139.036445-158.72 43.918222 42.951111 118.727111 120.035556 138.752 158.435556A156.444444 156.444444 0 0 1 640 782.222222z m0-256a99.555556 99.555556 0 1 0 0 199.111111 99.555556 99.555556 0 0 0 0-199.111111z m0 142.222222a42.666667 42.666667 0 1 1 0-85.333333 42.666667 42.666667 0 0 1 0 85.333333z m68.835556-623.502222a28.444444 28.444444 0 0 0-19.512889 7.68L210.488889 503.182222a28.444444 28.444444 0 0 0 38.968889 41.528889l479.004444-450.56c11.377778-10.808889 11.946667-28.899556 1.194667-40.391111a28.216889 28.216889 0 0 0-20.821333-8.817778z m-474.908445 231.822222a28.444444 28.444444 0 0 0-20.081778 48.64l100.864 100.693334a28.444444 28.444444 0 1 0 40.220445-40.106667L254.065778 285.013333a28.899556 28.899556 0 0 0-20.138667-8.248889zM284.444444 71.111111a28.444444 28.444444 0 0 0-20.138666 48.64l227.555555 227.555556a28.501333 28.501333 0 0 0 40.220445-40.391111l-227.555556-227.555556A28.899556 28.899556 0 0 0 284.444444 71.111111z m342.983112 59.733333a28.444444 28.444444 0 0 0-20.138667 48.355556l109.511111 109.511111a28.444444 28.444444 0 0 0 40.220444-40.106667l-109.511111-109.511111a27.704889 27.704889 0 0 0-20.081777-8.248889z"  horiz-adv-x="1024" />

    
    <glyph glyph-name="loupanku" unicode="&#58909;" d="M137.329778-14.222222C124.359111-14.222222 113.777778-2.161778 113.777778 12.743111v2.958222c0 14.904889 10.581333 26.965333 23.552 26.965334h749.226666c13.084444 0 23.665778-12.060444 23.665778-26.965334v-2.958222c0-14.904889-10.581333-26.965333-23.608889-26.965333H137.386667zM625.208889 782.222222h-341.333333a113.777778 113.777778 0 0 1-113.777778-113.777778v-682.666666h568.888889V668.444444a113.777778 113.777778 0 0 1-113.777778 113.777778m56.888889-113.777778v-625.777777h-455.111111V668.444444c0 31.345778 25.486222 56.888889 56.888889 56.888889h341.333333c31.288889 0 56.888889-25.543111 56.888889-56.888889zM799.402667 355.555556v-341.333334a28.444444 28.444444 0 1 1 56.888889 0v341.333334a28.444444 28.444444 0 1 1-56.888889 0zM340.423111 611.555556v-113.777778h56.888889V611.555556zM511.715556 611.555556v-113.777778h56.888888V611.555556zM340.423111 384v-113.777778h56.888889V384zM511.715556 384v-113.777778h56.888888V384z"  horiz-adv-x="1024" />

    
    <glyph glyph-name="cailiaodan" unicode="&#58888;" d="M313.2 104.5h-136c-31.3 0-56.9 25.5-56.9 56.9V717.9c0 31.3 25.5 56.9 56.9 56.9h500.7c31.3 0 56.9-25.5 56.9-56.9v-195.3c0-15.5 12.5-27.9 27.9-27.9 15.5 0 27.9 12.5 27.9 27.9V717.9c0 62.1-50.6 112.8-112.8 112.8H177.2c-62.1 0-112.8-50.5-112.8-112.8v-556.5c0-62.1 50.6-112.8 112.8-112.8h136c15.4 0 27.9 12.5 27.9 27.9 0 15.5-12.4 28-27.9 28zM315.8 328H204.1c-15.4 0-27.9-12.5-27.9-27.9 0-15.4 12.5-27.9 27.9-27.9h111.8c15.4 0 27.9 12.5 27.9 27.9-0.1 15.3-12.5 27.9-28 27.9zM204.1 495.5c-15.4 0-27.9-12.5-27.9-27.9 0-15.5 12.5-27.9 27.9-27.9h231.1c15.5 0 27.9 12.5 27.9 27.9 0 15.4-12.5 27.9-27.9 27.9H204.1zM678.8 635.2c0 15.5-12.4 27.9-27.8 27.9H204.1c-15.4 0-27.9-12.5-27.9-27.9 0-15.5 12.5-27.9 27.9-27.9h446.8c15.4-0.1 27.9 12.4 27.9 27.9zM816.5 325.4c0 75.6-61.3 136.9-136.9 136.9S542.7 401 542.7 325.4 604 188.5 679.6 188.5s136.9 61.3 136.9 136.9z m-136.9-80.8c-44.6 0-80.8 36.2-80.8 80.8 0 44.6 36.2 80.8 80.8 80.8 44.6 0 80.8-36.2 80.8-80.8 0-44.6-36.2-80.8-80.8-80.8zM535.6 210.9c-75.6 0-136.9-61.3-136.9-136.9S460-63 535.6-63s137 61.3 137 137-61.3 136.9-137 136.9z m0-217.7c-44.6 0-80.8 36.2-80.8 80.8 0 44.6 36.2 80.8 80.8 80.8s80.8-36.2 80.8-80.8c0-44.7-36.1-80.8-80.8-80.8zM823.6 210.9c-75.6 0-136.9-61.3-136.9-136.9s61.2-137 136.9-137 136.9 61.3 136.9 137-61.3 136.9-136.9 136.9z m0-217.7c-44.6 0-80.8 36.2-80.8 80.8 0 44.6 36.2 80.8 80.8 80.8 44.6 0 80.8-36.2 80.8-80.8-0.1-44.7-36.2-80.8-80.8-80.8z"  horiz-adv-x="1024" />

    
    <glyph glyph-name="split" unicode="&#59092;" d="M291.84 413.696h192v-64H291.84zM547.84 413.696h192v-64H547.84zM35.84 413.696h192v-64H35.84zM803.84 413.696h192v-64H803.84zM893.44 885.76v-399.36H128v399.36h765.44z m-62.464-330.24v266.24h-638.976v-266.24h638.976zM888.32 288.256v-399.36H122.88v399.36h765.44z m-62.464-330.24v266.24h-638.976v-266.24h638.976z"  horiz-adv-x="1024" />

    
    <glyph glyph-name="renwuliebiao" unicode="&#59274;" d="M896.067942 895.997283H127.429864A103.511343 103.511343 0 0 1 23.543819 792.610841v-817.224398a103.85482 103.85482 0 0 1 103.886045-103.355218h769.13768a103.511343 103.511343 0 0 1 103.886045 103.355218V792.610841A103.636244 103.636244 0 0 1 896.067942 895.997283z m38.875301-920.111238A38.781625 38.781625 0 0 0 896.067942-62.614554H127.429864a38.781625 38.781625 0 0 0-38.875301 38.375699V792.610841a38.781625 38.781625 0 0 0 38.875301 38.406923h769.13768A38.781625 38.781625 0 0 0 935.317945 792.610841v-816.724796zM253.829236 601.762777h-2.060859a32.255571 32.255571 0 1 1 0-64.479917h2.060859a32.536597 32.536597 0 0 1 32.755173 32.224346 32.880074 32.880074 0 0 1-32.755173 32.255571z m509.188379 0H372.047621a32.255571 32.255571 0 1 1 0-64.479917h390.969994a32.536597 32.536597 0 0 1 32.755173 32.224346 33.22355 33.22355 0 0 1-32.755173 32.255571z m0-181.105819H372.047621a32.255571 32.255571 0 1 1 0-64.479917h390.969994a32.536597 32.536597 0 0 1 32.755173 32.224346 33.22355 33.22355 0 0 1-32.755173 32.255571z m0-174.860792H372.047621a32.255571 32.255571 0 1 1 0-64.479916h390.969994a32.536597 32.536597 0 0 1 32.755173 32.255571 32.880074 32.880074 0 0 1-32.755173 32.255571zM253.829236 425.71543h-2.060859a32.255571 32.255571 0 1 1 0-64.479916h2.060859a32.255571 32.255571 0 1 1 0 64.479916z m0-176.047346h-2.060859a32.255571 32.255571 0 1 1 0-64.479917h2.060859a32.255571 32.255571 0 1 1 0 64.479917z m0 0"  horiz-adv-x="1024" />

    
    <glyph glyph-name="date" unicode="&#58891;" d="M290.4 639.9c15.4 0 28 12.6 28 28V804c0 15.4-12.6 28-28 28s-28-12.6-28-28v-136.1c0-15.4 12.6-28 28-28zM387.7 709.3h253.7c14 1.1 25.8 13.4 25.8 28 0 15.1-11.8 26.9-25.8 28H387.7c-15.1-0.6-27.4-12.3-27.4-28 0-15.1 12.3-27.4 27.4-28zM904 765.3h-67.8c-15.1-0.6-27.4-12.3-27.4-28 0-15.1 12.3-27.4 27.4-28h67.8v-716.8H120V709.3h73.4c14.6 0.6 26.3 13.4 26.3 28 0 15.1-11.8 27.4-26.3 28H120c-30.9 0-56-25.1-56-56v-716.8c0-30.9 25.1-56 56-56h784c30.9 0 56 25.1 56 56V709.3c0 30.9-25.1 56-56 56zM284.9 390.9h74.5c15.4 0 28 12.6 28 28s-12.6 28-28 28h-74.5c-15.4 0-28-12.6-28-28 0-15.3 12.6-28 28-28zM551 446.9h-74.5c-15.4 0-28-12.6-28-28s12.6-28 28-28H551c15.4 0 28 12.6 28 28 0 15.5-12.6 28-28 28zM740.9 446.9h-74.5c-15.4 0-28-12.6-28-28s12.6-28 28-28h74.5c15.4 0 28 12.6 28 28 0 15.5-12.6 28-28 28zM284.9 264.1h74.5c15.4 0 28 12.6 28 28s-12.6 28-28 28h-74.5c-15.4 0-28-12.6-28-28s12.6-28 28-28zM551 320.1h-74.5c-15.4 0-28-12.6-28-28s12.6-28 28-28H551c15.4 0 28 12.6 28 28s-12.6 28-28 28zM740.9 320.1h-74.5c-15.4 0-28-12.6-28-28s12.6-28 28-28h74.5c15.4 0 28 12.6 28 28s-12.6 28-28 28zM284.9 134.60000000000002h74.5c15.4 0 28 12.6 28 28s-12.6 28-28 28h-74.5c-15.4 0-28-12.6-28-28s12.6-28 28-28zM551 190.60000000000002h-74.5c-15.4 0-28-12.6-28-28s12.6-28 28-28H551c15.4 0 28 12.6 28 28s-12.6 28-28 28zM740.9 190.60000000000002h-74.5c-15.4 0-28-12.6-28-28s12.6-28 28-28h74.5c15.4 0 28 12.6 28 28s-12.6 28-28 28zM738.8 639.8c15.4 0 28 12.6 28 28v136.1c0 15.4-12.6 28-28 28s-28-12.6-28-28v-136.1c0-15.4 12.6-28 28-28z"  horiz-adv-x="1024" />

    
    <glyph glyph-name="zhankai" unicode="&#58914;" d="M512 813.568c236.544 0 429.056-192.512 429.056-429.056s-192.512-429.056-429.056-429.056c-236.544 0-429.056 192.512-429.056 429.056 0 236.032 192.512 429.056 429.056 429.056m0 65.536C238.592 879.104 16.896 657.408 16.896 384c0-273.408 221.696-495.104 495.104-495.104 273.408 0 495.104 221.696 495.104 495.104 0 273.408-221.696 495.616-495.104 495.104zM512 212.992c-8.704 0-16.896 3.072-23.552 9.728L278.016 433.664c-12.8 12.8-12.8 33.792 0 46.592s33.792 12.8 46.592 0l210.432-210.432c12.8-12.8 12.8-33.792 0-46.592-6.144-6.656-14.336-10.24-23.04-10.24zM512 212.992c-8.704 0-16.896 3.072-23.552 9.728-12.8 12.8-12.8 33.792 0 46.592l210.432 210.432c12.8 12.8 33.792 12.8 46.592 0s12.8-33.792 0-46.592l-210.432-210.432c-6.144-6.144-14.336-9.728-23.04-9.728z"  horiz-adv-x="1024" />

    
    <glyph glyph-name="shuju" unicode="&#58900;" d="M1060.984-128c13.312 0 24.204 13.542 24.204 30.255s-10.892 30.255-24.204 30.255H24.82C11.51-67.49 0.617-81.032 0.617-97.745S11.51-128 24.821-128zM217.836 496.633H72.612A72.612 72.612 0 0 1 0 424.021v-338.856a72.612 72.612 0 0 1 72.612-72.612h145.224a72.612 72.612 0 0 1 72.612 72.612V424.02a72.612 72.612 0 0 1-72.612 72.612z m12.102-399.366a24.204 24.204 0 0 0-24.204-24.204H84.714a24.204 24.204 0 0 0-24.204 24.204V411.919a24.204 24.204 0 0 0 24.204 24.204h121.02a24.204 24.204 0 0 0 24.204-24.204zM615.521 896H470.296a72.612 72.612 0 0 1-72.612-72.612v-738.223a72.612 72.612 0 0 1 72.612-72.612h145.225a72.612 72.612 0 0 1 72.612 72.612V823.388A72.612 72.612 0 0 1 615.52 896z m12.102-798.733a24.204 24.204 0 0 0-24.204-24.204h-121.02a24.204 24.204 0 0 0-24.205 24.204V811.286a24.204 24.204 0 0 0 24.204 24.204h121.02a24.204 24.204 0 0 0 24.205-24.204z m385.582 580.897H867.981a72.612 72.612 0 0 1-72.612-72.612v-520.387a72.612 72.612 0 0 1 72.612-72.612h145.224a72.612 72.612 0 0 1 72.612 72.612V605.552a72.612 72.612 0 0 1-72.612 72.612z m12.102-580.897a24.204 24.204 0 0 0-24.204-24.204h-121.02a24.204 24.204 0 0 0-24.204 24.204V593.45a24.204 24.204 0 0 0 24.204 24.204h121.02a24.204 24.204 0 0 0 24.204-24.204z"  horiz-adv-x="1085" />

    
    <glyph glyph-name="wire" unicode="&#58884;" d="M1027.264 536.384L380.736 537.344c-53.12 0-96.576 49.664-96.576 110.72 0 60.928 43.456 110.528 96.576 110.528H502.4v-23.296c0-20.736 21.376-37.504 47.936-37.504 26.624 0 48 16.768 48 37.504v23.36h284.608v41.088H598.4v26.752C598.4 847.36 577.024 864 550.4 864c-26.56 0-47.936-16.64-47.936-37.504v-26.752H380.736c-72.96 0-132.288-68.032-132.288-151.744 0-83.52 59.456-151.232 132.288-151.232l646.528-1.6c53.12 0 96.576-49.6 96.576-110.656s-43.456-110.656-96.576-110.656h-77.248v22.528c0 20.8-21.504 37.504-48 37.504-26.56 0-48-16.704-48-37.504v-22.528H380.736c-72.96 0-132.288-67.776-132.288-151.424s59.456-151.424 132.288-151.424h97.472v-29.376c0-20.864 21.44-37.632 48-37.632 26.368 0 47.872 16.768 47.872 37.632v29.376h308.864v40.832H574.144v20.864c0 20.8-21.504 37.632-47.872 37.632-26.624 0-48-16.832-48-37.632v-20.864H380.736c-53.12 0-96.576 49.536-96.576 110.656s43.456 110.656 96.576 110.656h473.28v-27.712c0-20.608 21.44-37.504 48-37.504 26.496 0 48 16.896 48 37.504v27.712h77.248c72.896 0 132.288 67.968 132.288 151.424 0 83.52-59.456 151.808-132.288 151.808zM526.272-108.79999999999995c-34.048 0-60.8 22.208-60.8 50.432v16.576H380.736c-80 0-145.152 73.664-145.152 164.224s65.152 164.224 145.152 164.224h460.416v9.728c0 28.224 26.752 50.304 60.8 50.304 33.472 0 60.8-22.592 60.8-50.304v-9.664h64.448c46.208 0 83.776 43.904 83.776 97.792s-37.568 97.792-83.776 97.792L380.672 483.968c-79.936 0-145.088 73.6-145.088 164.032 0 90.688 65.152 164.544 145.152 164.544H489.6v13.952C489.6 854.72 516.288 876.8 550.4 876.8s60.8-22.08 60.8-50.304v-13.952h284.608v-66.752H611.2v-10.496c0-28.224-26.752-50.304-60.8-50.304-33.472 0-60.736 22.592-60.736 50.304v10.496H380.736c-46.208 0-83.776-43.84-83.776-97.664 0-54.016 37.568-97.92 83.776-97.92l646.528-1.024c80 0 145.152-73.856 145.152-164.672 0-90.56-65.152-164.224-145.152-164.224h-64.448v-14.848c0-27.776-27.328-50.304-60.8-50.304s-60.8 22.592-60.8 50.304v14.848H380.736c-46.208 0-83.776-43.904-83.776-97.792s37.568-97.792 83.776-97.792h84.672v8.064c0 27.84 27.328 50.432 60.8 50.432 33.408 0 60.672-22.656 60.672-50.432v-8.064h308.864v-66.432H586.944v-16.576c0-27.904-27.264-50.496-60.672-50.496zM380.736 261.05600000000004c-65.856 0-119.488-62.208-119.488-138.624s53.632-138.624 119.488-138.624h110.336v-42.176c0-13.44 16.128-24.832 35.2-24.832 19.008 0 35.072 11.328 35.072 24.832v42.176h308.864v15.168H561.344v33.664c0 13.44-16.064 24.832-35.072 24.832-19.072 0-35.2-11.328-35.2-24.832v-33.664H380.736c-60.288 0-109.376 55.36-109.376 123.456s49.088 123.456 109.376 123.456h486.08v-40.512c0-13.376 16.128-24.704 35.2-24.704s35.2 11.328 35.2 24.704v40.512h90.048c65.856 0 119.488 62.208 119.488 138.624 0 76.672-53.632 139.072-119.488 139.072L380.736 524.544c-60.288 0-109.376 55.424-109.376 123.584 0 68.032 49.088 123.328 109.376 123.328h134.528v-36.096c0-13.376 16.064-24.704 35.136-24.704s35.2 11.328 35.2 24.704v36.096h284.608v15.488H585.536v39.552C585.536 840.128 569.792 851.2 550.4 851.2c-19.392 0-35.136-11.072-35.136-24.704v-39.552H380.736c-65.856 0-119.488-62.336-119.488-138.944 0-76.352 53.632-138.432 119.488-138.432l646.592-1.6c60.224 0 109.312-55.36 109.312-123.456s-49.088-123.456-109.376-123.456h-90.048v35.328c0 13.376-16.128 24.704-35.2 24.704s-35.2-11.328-35.2-24.704v-35.328H380.736z"  horiz-adv-x="1408" />

    
    <glyph glyph-name="dingdanliebiao" unicode="&#58904;" d="M790.528 829.952h-563.2c-56.32 0-102.4-46.08-102.4-102.4v-691.2c0-56.32 46.08-102.4 102.4-102.4h563.2c56.32 0 102.4 46.08 102.4 102.4v691.2c0 56.32-46.08 102.4-102.4 102.4z m51.2-762.88c0-56.32-25.6-81.92-81.92-81.92h-501.76c-56.32 0-81.92 25.6-81.92 81.92v629.76c0 56.32 25.6 81.92 81.92 81.92h501.76c56.32 0 81.92-25.6 81.92-81.92v-629.76zM750.08 596.48H401.92c-14.336 0-25.6 11.264-25.6 25.6 0 13.824 11.264 25.6 25.6 25.6h348.16c14.336 0 25.6-11.264 25.6-25.6s-11.776-25.6-25.6-25.6z m0-166.4H401.92c-14.336 0-25.6 11.264-25.6 25.6s11.264 25.6 25.6 25.6h348.16c14.336 0 25.6-11.264 25.6-25.6s-11.776-25.6-25.6-25.6z m0-153.088H401.92c-14.336 0-25.6 11.264-25.6 25.6s11.264 25.6 25.6 25.6h348.16c14.336 0 25.6-11.264 25.6-25.6s-11.776-25.6-25.6-25.6zM535.04 116.736H401.92c-14.336 0-25.6 11.264-25.6 25.6s11.264 25.6 25.6 25.6h133.12c14.336 0 25.6-11.264 25.6-25.6 0-13.824-11.776-25.6-25.6-25.6zM318.976 596.48h-51.2c-13.824 0-25.6 11.264-25.6 25.6 0 13.824 11.264 25.6 25.6 25.6h51.2c13.824 0 25.6-11.264 25.6-25.6s-11.776-25.6-25.6-25.6z m0-166.4h-51.2c-13.824 0-25.6 11.264-25.6 25.6s11.264 25.6 25.6 25.6h51.2c13.824 0 25.6-11.264 25.6-25.6s-11.776-25.6-25.6-25.6z m0-153.088h-51.2c-13.824 0-25.6 11.264-25.6 25.6s11.264 25.6 25.6 25.6h51.2c13.824 0 25.6-11.264 25.6-25.6s-11.776-25.6-25.6-25.6z m0-160.256h-51.2c-13.824 0-25.6 11.264-25.6 25.6s11.264 25.6 25.6 25.6h51.2c13.824 0 25.6-11.264 25.6-25.6 0-13.824-11.776-25.6-25.6-25.6z"  horiz-adv-x="1024" />

    
    <glyph glyph-name="zhijianxitong" unicode="&#59317;" d="M571.2 544c0 16-12.8 30.4-28.8 30.4h-281.6c-16 0-28.8-12.8-28.8-30.4 0-16 12.8-30.4 28.8-30.4h281.6c16 1.6 28.8 14.4 28.8 30.4zM630.4 788.8H912c16 0 30.4 12.8 28.8 30.4 0 16-12.8 30.4-28.8 30.4h-281.6c-16 0-28.8-12.8-28.8-30.4 0-17.6 12.8-30.4 28.8-30.4zM924.8 724.8h-294.4c-25.6 0-51.2 11.2-68.8 30.4l-84.8 94.4C459.2 868.8 433.6 880 408 880h-270.4c-56 0-102.4-46.4-102.4-104v-784c0-57.6 46.4-104 102.4-104H544c14.4 1.6 27.2 12.8 28.8 28.8 0 8-1.6 16-8 22.4-4.8 6.4-12.8 9.6-20.8 11.2h-406.4a43.712 43.712 0 0 0-43.2 43.2v784c0 22.4 19.2 41.6 41.6 41.6h243.2c25.6 0 51.2-11.2 68.8-30.4l84.8-94.4c17.6-19.2 43.2-30.4 68.8-30.4h321.6c24 0 41.6-19.2 41.6-43.2V496c0-14.4 9.6-28.8 25.6-32 19.2-3.2 35.2 11.2 35.2 30.4v124.8c3.2 57.6-43.2 104-100.8 105.6zM260.8 408c-16 0-28.8-12.8-28.8-30.4 0-16 12.8-30.4 28.8-30.4h76.8c16 0 28.8 12.8 28.8 30.4 0 16-12.8 30.4-28.8 30.4h-76.8zM812.8-112c-3.2 0-4.8 0-8 1.6-208 59.2-208 204.8-206.4 222.4V324.8c0 16 12.8 30.4 30.4 30.4 108.8 0 161.6 49.6 164.8 51.2 11.2 11.2 30.4 11.2 41.6 0 1.6-1.6 56-51.2 164.8-51.2 16 0 30.4-12.8 30.4-30.4v-214.4c0-17.6 0-163.2-206.4-222.4h-11.2z m-155.2 408v-187.2c0-4.8-3.2-110.4 155.2-158.4 158.4 48 155.2 153.6 155.2 158.4V296c-76.8 6.4-128 32-155.2 49.6-27.2-17.6-78.4-43.2-155.2-49.6z"  horiz-adv-x="1064" />

    
    <glyph glyph-name="gongxuyanwu" unicode="&#58962;" d="M512-57.6c-243.2 0-441.6 198.4-441.6 441.6S268.8 825.6 512 825.6c89.6 0 172.8-32 249.6-70.4l64 51.2C736 851.2 620.8 896 512 896 224 896 0 672 0 384s224-512 512-512c19.2 0 38.4 12.8 38.4 38.4s-19.2 32-38.4 32zM441.6 371.2l236.8-140.8c19.2-12.8 19.2-38.4 12.8-51.2-6.4-12.8-32-19.2-51.2-6.4L377.6 320s-6.4 0-12.8 12.8V640c0 19.2 12.8 38.4 38.4 38.4s38.4-19.2 38.4-38.4v-268.8z m441.6 300.8c0-12.8-6.4-12.8-19.2-12.8l-134.4 38.4s-6.4 0-6.4 6.4c-6.4 6.4 0 12.8 0 19.2l134.4 96h6.4c12.8 6.4 12.8 0 12.8-6.4s6.4-140.8 6.4-140.8z m-147.2-761.6c-12.8-6.4-38.4 0-51.2 12.8s0 38.4 12.8 51.2c19.2 6.4 38.4 19.2 57.6 38.4 12.8 12.8 38.4 6.4 51.2-6.4s6.4-38.4-6.4-51.2c-12.8-25.6-32-32-64-44.8z m185.6 153.6c-12.8-12.8-38.4-19.2-51.2-6.4s-19.2 38.4-6.4 51.2c12.8 12.8 19.2 38.4 38.4 57.6 6.4 12.8 32 19.2 51.2 12.8 12.8-6.4 19.2-32 12.8-51.2l-44.8-64z m96 224c0-19.2-19.2-38.4-44.8-32s-38.4 19.2-32 44.8c6.4 12.8 6.4 38.4 6.4 57.6s12.8 38.4 38.4 38.4 38.4-12.8 38.4-32 0-51.2-6.4-76.8z m-12.8 217.6c6.4-19.2-6.4-38.4-19.2-44.8-19.2-6.4-38.4 6.4-44.8 19.2l-19.2 64c-6.4 12.8 0 38.4 12.8 51.2s38.4 0 51.2-12.8c0-25.6 6.4-44.8 19.2-76.8zM736-89.6c-12.8-6.4-38.4 0-51.2 12.8s0 38.4 12.8 51.2c19.2 6.4 38.4 19.2 57.6 38.4 12.8 12.8 38.4 6.4 51.2-6.4s6.4-38.4-6.4-51.2c-12.8-25.6-32-32-64-44.8zM921.6 64c-12.8-12.8-38.4-19.2-51.2-6.4s-19.2 38.4-6.4 51.2c12.8 12.8 19.2 38.4 38.4 57.6 6.4 12.8 32 19.2 51.2 12.8 12.8-6.4 19.2-32 12.8-51.2l-44.8-64zM1017.6 288c0-19.2-19.2-38.4-44.8-32s-38.4 19.2-32 44.8c6.4 12.8 6.4 38.4 6.4 57.6s12.8 38.4 38.4 38.4 38.4-12.8 38.4-32 0-51.2-6.4-76.8zM1004.8 505.6c6.4-19.2-6.4-38.4-19.2-44.8-19.2-6.4-38.4 6.4-44.8 19.2l-19.2 64c-6.4 12.8 0 38.4 12.8 51.2s38.4 0 51.2-12.8c0-25.6 6.4-44.8 19.2-76.8z"  horiz-adv-x="1024" />

    
    <glyph glyph-name="tongzhiguanli" unicode="&#59384;" d="M849.17198 867.552713c-18.009793 0-35.712601-5.01409-61.601679-14.632957L344.181473 650.616568H105.040072C50.499051 650.616568 6.190866 606.308384 6.190866 551.869691v-232.387728c0-54.541021 44.308184-98.849206 98.849206-98.849206h9.823523v-211.001099c0-54.541021 44.308184-98.849206 98.849206-98.849206 54.438693 0 98.849206 44.410513 98.849206 98.849206V220.632757h41.340661l310.566604-159.529929c-1.023284 6.958329-2.353553 17.498151-1.330269 26.503048 1.739582 15.246927 5.321075 32.131108 5.423403 32.949735 0.716299 3.581493 1.841911 6.651344 3.479165 9.107225L380.201059 275.787749V594.745278l425.890677 188.898172c1.023284 0.409313 2.046567 1.023284 2.967523 1.534925 9.311882 5.935045 19.340062 8.902568 29.879884 8.902568 27.117018 0 46.047767-21.488958 46.047766-56.178275v-492.301789l1.125612 1.125612c3.990806 4.093135 10.02818 4.604777 16.167883 4.604777 2.967523 0 5.832717-0.61397 8.390926-1.739582l0.409314-0.204657 37.145198-20.670331V768.498851c0 54.64335-44.410513 99.053862-99.053862 99.053862zM249.323074 9.631658c0-23.22854-15.553912-35.610273-35.610273-35.610273-16.065554 0-35.610273 13.507345-35.610273 35.610273V220.632757h71.220546v-211.001099z m67.639053 274.240032H105.040072c-30.903168 0-35.610273 25.172779-35.610273 56.075947V531.404017c0 30.903168 4.707105 56.075947 35.610273 56.075947h211.922055v-303.608274zM1018.627761 111.448386c-1.841911 9.925852-7.879285 16.270211-15.042271 16.167883h-1.534925c-24.865794 0-45.126811 20.261017-45.126812 45.126811 0 8.18627 3.888478 17.191166 3.888478 17.293494 3.888478 8.595583 0.920955 19.237734-6.856 24.661138l-0.409314 0.306985-6.24203 3.479164-37.145199 20.670331-0.409313 0.204657c-2.558209 1.125612-5.423404 1.739582-8.390927 1.739582-6.139702 0-12.177076-2.455881-16.167882-6.651344l-1.125612-1.125612c-6.242031-6.037374-21.693614-18.521435-34.382333-18.521435-13.609673 0-30.391526 14.530629-35.712601 20.056361-3.990806 4.195463-10.130509 6.753672-16.372539 6.753672-2.967523 0-5.730389-0.61397-8.288598-1.637254l-0.511642-0.204657-44.922154-24.661137-0.409314-0.306985c-7.776956-5.423404-10.744479-16.065554-6.958329-24.661137 0 0 3.888478-9.107225 3.888478-17.293495 0-24.865794-20.261017-45.126811-45.126811-45.126811h-1.534926c-4.707105 0.102328-8.80024-2.455881-11.665434-7.060658-1.534926-2.455881-2.762866-5.62806-3.479164-9.107225-0.102328-0.818627-3.581493-19.44239-3.581493-34.075347 0-9.004897 1.330269-19.544719 2.353552-26.503048 0.61397-4.297792 1.22794-7.265314 1.227941-7.469971 1.841911-9.823524 7.674628-16.167882 14.837613-16.167882h1.841911c24.865794 0 45.126811-20.261017 45.126811-45.126811 0-8.18627-3.888478-17.191166-3.888478-17.293495-3.78615-8.595583-0.818627-19.237734 6.856001-24.661137l0.409313-0.306985 42.670931-23.84251 0.409313-0.204657c2.558209-1.125612 5.423404-1.739582 8.390927-1.739583 6.242031 0 12.279404 2.558209 16.27021 6.856001 5.01409 5.423404 22.409913 20.874988 36.326572 20.874988 14.018987 0 31.107825-15.451584 36.531228-21.38663 3.990806-4.40012 10.130509-6.958329 16.474868-6.958329 2.967523 0 5.730389 0.511642 8.186269 1.637254l0.511642 0.204657 44.103528 24.354152 0.409313 0.306985c7.776956 5.423404 10.744479 16.065554 6.856001 24.661137 0 0-3.888478 9.107225-3.888478 17.293495 0 24.865794 20.261017 45.126811 45.126811 45.126811h1.534926c7.265314-0.102328 13.20036 6.242031 15.04227 16.167883 0.204657 0.818627 3.683821 19.44239 3.683821 34.075347-0.102328 14.735285-3.581493 33.359049-3.786149 34.075347z m-170.78605 58.941141c12.791046 0 24.968122-2.558209 36.121914-7.265314 33.25672-14.121315 56.689917-47.07105 56.689918-85.444189 0-51.061857-41.545318-92.709503-92.811832-92.709503-51.164185 0-92.709503 41.545318-92.709504 92.709503 0 2.046567 0.102328 4.093135 0.204657 6.139702 3.172179 48.196662 43.387229 86.569801 92.504847 86.569801z"  horiz-adv-x="1024" />

    
    <glyph glyph-name="beipin_cangkuguanli" unicode="&#59286;" d="M946.123 492.623L527.703 822.545a27.887 27.887 0 0 1-34.609 0L74.687 492.623c-12.118-9.553-14.206-27.13-4.64-39.248 5.513-6.987 13.702-10.644 21.957-10.644a27.866 27.866 0 0 1 17.29 6.004l56.239 44.345v-518.485c0-15.448 12.513-27.949 27.948-27.949h649.595c15.434 0 27.948 12.501 27.948 27.95V480.66l40.49-31.926c12.118-9.553 29.695-7.478 39.247 4.64 9.569 12.118 7.481 29.695-4.638 39.248z m-130.995-490.08H221.43V525.894a27.83 27.83 0 0 1-1.813 9.834L510.4 765.01l304.73-240.276v-522.192zM301.06 411.806a51.859 51.859 0 1 1 103.718 0 51.859 51.859 0 1 1-103.718 0zM301.06 263.91a51.859 51.859 0 1 1 103.718 0 51.859 51.859 0 1 1-103.718 0zM471.105 263.91a51.859 51.859 0 1 1 103.718 0 51.859 51.859 0 1 1-103.718 0zM301.06 116.015a51.859 51.859 0 1 1 103.718 0 51.859 51.859 0 1 1-103.718 0zM471.105 116.015a51.859 51.859 0 1 1 103.718 0 51.859 51.859 0 1 1-103.718 0zM641.149 116.015a51.859 51.859 0 1 1 103.718 0 51.859 51.859 0 1 1-103.717 0z"  horiz-adv-x="1024" />

    
    <glyph glyph-name="gongzuozheng" unicode="&#58897;" d="M604.1 614.2h-184v103c0 40.3 32.7 73 73 73h38c40.3 0 73-32.7 73-73v-103z m-128 56h72v47c0 9.4-7.6 17-17 17h-38c-9.4 0-17-7.6-17-17v-47zM917-22.2H107c-40.3 0-73 32.7-73 73V597.1c0 40.3 32.7 73 73 73h810c40.3 0 73-32.7 73-73v-546.3c0-40.2-32.7-73-73-73zM107 614.1c-9.4 0-17-7.6-17-17v-546.3c0-9.4 7.6-17 17-17h810c9.4 0 17 7.6 17 17V597.1c0 9.4-7.6 17-17 17H107zM608.3 406.4H864v-56H608.3zM608.3 250H864v-56H608.3zM342 253.2c-70.6 0-128 57.4-128 128s57.4 128 128 128 128-57.4 128-128-57.4-128-128-128z m0 200c-39.7 0-72-32.3-72-72s32.3-72 72-72 72 32.3 72 72-32.3 72-72 72zM520 131.2h-56c0 67.3-54.7 122-122 122s-122-54.7-122-122h-56c0 98.1 79.9 178 178 178s178-79.8 178-178z"  horiz-adv-x="1024" />

    
    <glyph glyph-name="lingliaoche" unicode="&#59278;" d="M964.523236 93.866667H162.389902c-17.066667 0-28.444444 11.377778-28.444444 28.444444V708.266667L37.234347 787.911111c-11.377778 5.688889-17.066667 22.755556-5.688889 34.133333 11.377778 17.066667 28.444444 17.066667 39.822222 5.688889l113.777778-85.333333c5.688889-5.688889 11.377778-11.377778 11.377778-22.755556v-568.888888h773.688888c17.066667 0 28.444444-11.377778 28.444445-28.444445-5.688889-11.377778-17.066667-28.444444-34.133333-28.444444M924.701013 207.644444H281.856569c-17.066667 0-28.444444 11.377778-28.444445 28.444445s11.377778 28.444444 28.444445 28.444444h637.155555c17.066667 0 28.444444-11.377778 28.444445-28.444444 5.688889-11.377778-11.377778-28.444444-22.755556-28.444445M924.701013 327.111111H281.856569c-11.377778 0-28.444444 11.377778-28.444445 28.444445s11.377778 28.444444 28.444445 28.444444h637.155555c17.066667 0 28.444444-11.377778 28.444445-28.444444 5.688889-17.066667-11.377778-28.444444-22.755556-28.444445M281.856569-2.844444c-17.066667 0-34.133333-17.066667-34.133333-34.133334s17.066667-34.133333 34.133333-34.133333 28.444444 17.066667 28.444444 34.133333-11.377778 34.133333-28.444444 34.133334m0-119.466667c-45.511111 0-85.333333 39.822222-85.333333 85.333333s39.822222 85.333333 85.333333 85.333334 85.333333-39.822222 85.333333-85.333334-39.822222-85.333333-85.333333-85.333333M862.123236-2.844444c-17.066667 0-34.133333-17.066667-34.133334-34.133334s17.066667-34.133333 34.133334-34.133333 34.133333 17.066667 34.133333 34.133333c-5.688889 17.066667-17.066667 34.133333-34.133333 34.133334m0-119.466667c-45.511111 0-85.333333 39.822222-85.333334 85.333333s39.822222 85.333333 85.333334 85.333334 85.333333-39.822222 85.333333-85.333334-39.822222-85.333333-85.333333-85.333333M799.545458 662.755556c-11.377778 11.377778-28.444444 11.377778-39.822222 0l-125.155556-125.155556V867.555556c0 17.066667-11.377778 28.444444-28.444444 28.444444s-28.444444-11.377778-28.444445-28.444444v-335.644445L446.834347 662.755556c-11.377778 11.377778-28.444444 11.377778-39.822223 0-11.377778-11.377778-11.377778-28.444444 0-39.822223l176.355556-176.355555c5.688889-5.688889 11.377778-5.688889 17.066667-5.688889 5.688889 0 11.377778 0 17.066666 5.688889l176.355556 176.355555c11.377778 11.377778 11.377778 28.444444 5.688889 39.822223"  horiz-adv-x="1024" />

    
    <glyph glyph-name="gongyingshang" unicode="&#59018;" d="M871.80392973 836.66445l-6.251175 12.403125h-694.575l-6.251175-12.403125C152.42267973 824.2613249999999-64.68162027 495.628125 59.34962973 346.790625c74.41875-93.07305 186.046875-86.821875 303.926175 18.6543C394.23400473 334.38750000000005 443.84650473 284.775 518.26525473 284.775c74.41875 0 124.03125 49.6125 148.8375 80.669925 62.015625-55.863675 124.03125-80.669925 179.894925-80.669925 49.6125 0 93.07305 24.80625 124.03125 62.015625 130.1832 148.8375-86.821875 477.4707-99.225 489.873825zM933.81955473 384c-24.80625-31.057425-49.6125-43.46055-80.669925-43.46055-43.46055 0-93.07305 24.80625-155.088675 80.669925V632.0625c0 18.6543-12.403125 31.057425-31.057425 31.057425s-31.057425-18.6543-31.057425-31.057425v-210.853125c-6.15195-12.403125-49.6125-80.669925-117.780075-80.669925-74.41875 0-124.03125 80.669925-124.03125 80.669925V638.2144499999999c0 18.555075-12.403125 31.057425-31.057425 31.057425s-31.057425-12.403125-31.057425-31.057425v-223.25625c-49.6125-49.6125-105.476175-74.41875-142.68555-74.41875-31.057425 0-62.015625 12.403125-86.821875 43.46055-74.41875 93.07305 37.209375 310.078125 99.225 403.151175h632.559375c62.3133-93.07305 173.941425-310.17735 99.522675-403.151175zM884.20705473 228.91132500000003c-18.6543 0-31.057425-12.403125-31.057425-31.057425v-198.45c0-12.403125-12.403125-24.80625-24.80625-24.80625h-620.15625c-12.403125 0-24.80625 12.403125-24.80625 24.80625v198.45c0 18.6543-12.403125 31.057425-31.057425 31.057425s-30.9582-12.403125-30.9582-31.057425v-198.45c0-43.46055 37.209375-80.669925 80.5707-80.669925h620.15625c43.46055 0 80.669925 37.209375 80.669925 80.669925v198.45c6.251175 18.6543-6.15195 31.057425-18.555075 31.057425z"  horiz-adv-x="1025" />

    
    <glyph glyph-name="caiwuguanli" unicode="&#58886;" d="M538.624 390.144H361.984c-13.824 0-25.088-11.264-25.088-25.088s11.264-25.088 25.088-25.088h176.64c13.824 0 25.088 11.264 25.088 25.088 0 13.312-11.264 25.088-25.088 25.088zM538.624 314.368H361.984c-13.824 0-25.088-11.264-25.088-25.088s11.264-25.088 25.088-25.088h176.64c13.824 0 25.088 11.264 25.088 25.088s-11.264 25.088-25.088 25.088zM450.56 440.32c-13.824 0-25.088-8.192-25.088-18.432v-183.296c0-10.24 11.264-18.432 25.088-18.432s25.088 8.192 25.088 18.432V421.888c0 10.24-11.264 18.432-25.088 18.432zM361.472 541.184c-6.656 0-12.8-2.56-17.92-7.168-9.728-9.728-9.728-25.6 0-35.84l89.088-89.088c5.12-5.12 11.264-7.168 17.92-7.168 6.656 0 12.8 2.56 17.92 7.168 9.728 9.728 9.728 25.6 0 35.84L379.392 534.016c-5.12 4.608-11.264 7.168-17.92 7.168zM539.136 540.672c-6.656 0-12.8-2.56-17.92-7.168L432.128 443.904c-9.728-9.728-9.728-25.6 0-35.84 5.12-5.12 11.264-7.168 17.92-7.168 6.656 0 12.8 2.56 17.92 7.168l89.088 89.088c9.728 9.728 9.728 25.6 0 35.84-5.12 5.12-11.264 7.68-17.92 7.68zM793.088-88.064c-5.12 0-11.776 1.536-15.872 3.584-3.584 2.048-7.168 4.608-9.728 7.68 0 0-5.632 5.632-13.312 11.776-9.216 7.168-17.92 10.752-24.064 10.752-3.584 0-11.264-1.536-24.064-10.752-6.656-5.12-12.288-10.24-13.312-11.776-2.048-2.048-4.608-4.096-6.656-5.632-9.728-6.144-24.064-6.656-34.304-1.024l-47.616 26.624c-14.336 8.192-20.48 25.6-13.824 40.448 1.536 3.584 4.096 11.264 4.096 17.408 0 24.576-19.456 45.056-44.032 46.08-14.848 1.024-27.136 11.776-29.696 26.624-2.048 11.264-4.096 27.648-4.096 40.96 0 13.312 2.048 29.696 4.096 40.96 2.56 14.848 14.848 26.112 29.696 26.624 24.576 1.024 44.032 21.504 44.032 46.08 0 2.048-0.512 8.704-4.096 17.92-6.144 14.848 0 32.256 14.336 39.936l50.176 27.648c10.24 5.632 24.576 4.608 34.304-1.536 2.56-1.536 4.608-3.072 6.656-5.12 0 0 5.632-5.632 13.312-11.264 12.288-8.704 19.968-10.24 23.552-10.24 3.584 0 11.264 1.536 23.552 10.24 7.168 5.12 12.8 10.24 13.312 11.264 1.024 1.024 2.56 2.048 3.584 3.072 9.728 7.168 26.112 8.704 36.864 3.072l48.64-27.136c14.336-8.192 20.48-25.6 13.824-40.96-1.536-3.584-4.096-11.264-4.096-17.408 0-24.576 19.456-45.056 44.032-46.08 14.848-0.512 27.648-11.776 29.696-26.624 2.048-11.264 4.096-27.648 4.096-40.96 0-14.336-2.56-31.744-4.096-40.96-2.56-14.848-14.848-25.6-29.696-26.624-24.576-1.536-44.032-21.504-44.032-46.08 0-4.608 1.536-11.264 4.096-17.92 6.144-14.848 0-32.256-14.336-39.936l-49.152-27.136c-5.12-2.56-10.24-3.584-15.872-3.584z m-63.488 97.792c20.48 0 41.472-7.68 62.464-23.552 1.536-1.024 3.072-2.56 4.608-3.584l7.68 4.096c-0.512 4.608-1.024 9.216-1.024 14.336 0 49.152 32.256 91.136 77.824 105.472 0.512 3.072 0.512 6.144 0.512 8.192 0 2.56 0 5.12-0.512 8.192-45.056 13.824-77.824 55.808-77.824 105.472 0 5.12 0.512 9.728 1.024 14.336l-7.68 4.096c-1.536-1.024-3.072-2.048-4.608-3.584-41.472-29.184-80.384-28.672-121.344 0.512-1.536 1.024-3.072 2.56-4.608 3.584l-9.216-5.12c0.512-5.12 1.024-9.728 1.024-14.336 0-49.152-32.256-91.648-77.824-105.472-0.512-3.072-0.512-6.144-0.512-8.192 0-2.56 0-5.12 0.512-8.192 45.056-13.824 77.824-55.808 77.824-105.472 0-5.12-0.512-9.728-1.024-14.336l6.144-3.584c1.536 1.024 3.072 2.56 4.608 3.584 20.992 15.36 41.984 23.552 61.952 23.552zM441.856-37.888H210.432c-52.736 0-95.744 35.328-95.744 79.36V653.824c0 43.52 43.008 79.36 95.744 79.36h499.712c52.736 0 95.744-35.328 95.744-79.36v-310.272c0-15.36-14.336-27.648-31.744-27.648-17.92 0-31.744 12.288-31.744 27.648V653.824c0 13.312-14.336 24.064-31.744 24.064H210.944c-17.408 0-31.744-10.752-31.744-24.064v-612.352c0-13.312 14.336-24.064 31.744-24.064h231.424c17.92 0 31.744-12.288 31.744-27.648 0-15.36-14.336-27.648-32.256-27.648z"  horiz-adv-x="1024" />

    
    <glyph glyph-name="shebeiguanli1" unicode="&#58981;" d="M73.142857 822.857143v-438.857143h877.714286V822.857143H73.142857z m0 73.142857h877.714286a73.142857 73.142857 0 0 0 73.142857-73.142857v-438.857143a73.142857 73.142857 0 0 0-73.142857-73.142857H73.142857a73.142857 73.142857 0 0 0-73.142857 73.142857V822.857143a73.142857 73.142857 0 0 0 73.142857 73.142857zM36.571429 164.571429h950.857142a36.571429 36.571429 0 1 0 0-73.142858H36.571429a36.571429 36.571429 0 1 0 0 73.142858z m0-219.428572h950.857142a36.571429 36.571429 0 1 0 0-73.142857H36.571429a36.571429 36.571429 0 1 0 0 73.142857z m255.268571 513.097143a146.285714 146.285714 0 1 1 0 292.571429 146.285714 146.285714 0 0 1 0-292.571429z m0 73.142857a73.142857 73.142857 0 1 0 0 146.285714 73.142857 73.142857 0 0 0 0-146.285714z"  horiz-adv-x="1024" />

    
    <glyph glyph-name="gongyiliucheng" unicode="&#58901;" d="M489.20231802 585.32790677c-52.84477829 0-95.840019 42.99247903-95.84001901 95.840019 0 40.9585005 26.01918363 77.39888981 64.7476262 90.67567433 14.77085428 5.06768583 30.8548882-2.80448771 35.91843147-17.57810367 5.06492414-14.77223513-2.80586855-30.85350736-17.57810368-35.9184315-15.8741461-5.44051285-26.53699893-20.38259139-26.53699892-37.17913916 0-21.66263084 17.62367143-39.28768309 39.28768308-39.2876831s39.28492142 17.62367143 39.28492143 39.2876831c0 15.61730971 12.65954867 28.27685837 28.27685837 28.27685839s28.27685837-12.65954867 28.27685837-28.27685839c0.00138084-52.84753998-42.99109819-95.840019-95.83725731-95.840019zM467.27870826 716.81156995c-11.74819373 0-22.72035489 7.37783251-26.74412506 19.11221782-5.06630498 14.77361597 2.80310687 30.8548882 17.57672285 35.91981233a95.66189054 95.66189054 0 0 0 31.09101197 5.16434469c15.61730971 0 28.27685837-12.66092951 28.27685836-28.27685838s-12.65954867-28.27685837-28.27685836-28.27685838c-4.38278878 0-8.67168037-0.70837134-12.75068416-2.1071631a28.22714811 28.22714811 0 0 0-9.1729256-1.53687584z m383.58377224-424.10868872c-52.84615914 0-95.83863818 42.99524071-95.83863817 95.84139984s42.99247903 95.83863818 95.84001901 95.83863817c52.84477829 0 95.83863818-42.99385987 95.83863816-95.83863817 0-52.84753998-42.99247903-95.84139984-95.83863816-95.84139984z m0 135.12632126c-21.66124999 0-39.28492142-17.62229058-39.28492143-39.28492142s17.62367143-39.28768309 39.28492143-39.28768308 39.28768309 17.62367143 39.28768309 39.28768308c0 21.66124999-17.62367143 39.28492142-39.28630225 39.28492142zM173.40816431 148.30007131000002c-52.84615914 0-95.83863818 42.99247903-95.83863818 95.83863818 0 52.84753998 42.99247903 95.840019 95.83863818 95.840019 52.84477829 0 95.840019-42.99247903 95.840019-95.840019-0.00138084-52.84477829-42.99385987-95.83863818-95.840019-95.83863818z m0 135.12632127c-21.66263084 0-39.28630225-17.62505227-39.28492142-39.28768309s17.62229058-39.28492142 39.28492142-39.28492142 39.28630225 17.62229058 39.28630225 39.28492142-17.62367143 39.28768309-39.28630225 39.28768309z m677.45707786-297.49525111c-52.84753998 0-95.840019 42.99247903-95.840019 95.83863815 0 52.84753998 42.99247903 95.840019 95.840019 95.84001902 52.84477829 0 95.83863818-42.99247903 95.83863817-95.84001902 0-52.84477829-42.99247903-95.83863818-95.83863817-95.83863815z m0 135.12632126c-21.66263084 0-39.28768309-17.62505227-39.2876831-39.28768311s17.62505227-39.28492142 39.2876831-39.28492141 39.28492142 17.62229058 39.28492142 39.28492141-17.62229058 39.28768309-39.28492142 39.28768311zM768.69278564 52.15488648999997H566.0046846c-57.94008093 0-105.07922495 47.13776318-105.07922497 105.07784412V597.7789484699999c0 15.61730971 12.65954867 28.27685837 28.27685839 28.27685837 15.61592886 0 28.27685837-12.65954867 28.27685836-28.27685837v-440.54621786c0-26.75793347 21.76619389-48.52550821 48.52412736-48.52550821h202.68672022c15.61730971 0 28.27547753-12.65954867 28.27547753-28.27685837s-12.65816783-28.27547753-28.27409669-28.27547754zM768.69278564 352.83849909H566.0046846c-23.92030559 0-46.83121651 3.76969545-64.51288327 10.61314256-35.29429143 13.65927743-40.56634169 35.55250868-40.5663417 47.38769535v170.50622483c0 15.61730971 12.65954867 28.27685837 28.27685839 28.27685837 15.61592886 0 28.27685837-12.65954867 28.27685836-28.27685837v-163.20433855c6.88763403-3.48800393 23.45496222-8.74900746 48.52412736-8.74900745h202.68672022c15.61730971 0 28.27547753-12.65954867 28.27547753-28.27685837s-12.65816783-28.27685837-28.27409669-28.27685837zM426.00537605 215.86185111999998H259.23018314c-15.61730971 0-28.27685837 12.65954867-28.27685838 28.27685837s12.65954867 28.27685837 28.27685838 28.27685837h166.77519291c17.90398211 0 29.89658466 4.31927009 34.92146443 7.17899144V444.36891387c0 15.61730971 12.65816783 28.27547753 28.27547754 28.27547754s28.27685837-12.65816783 28.27685836-28.27547754v-170.50484399c0-19.23097014-12.66645286-36.21807394-34.75300183-46.60613945-15.62007139-7.34883486-35.76377732-11.39607931-56.7207985-11.39607931z"  horiz-adv-x="1024" />

    
    <glyph glyph-name="fukuan" unicode="&#58916;" d="M900.53326623 458.50856817c-98.39213718 86.21219723-196.51209658 172.62852842-295.78881088 257.82006088-49.87651218 42.73185471-120.98286282 43.54838718-168.81804382 2.17741965C335.90120941 632.0216737000001 236.76058441 544.58467777 137.7560487 457.01159253c-20.82157223-18.37197564-27.421875-42.52772159-19.3245974-69.4732857 8.30141153-27.62600813 27.421875-43.2762094 55.72832712-48.71975813 17.96370941-3.40221753 35.79133035-0.74848782 53.55090746 0.13608848 14.765625 0.74848782 18.30393182-4.28679465 18.23588635-18.50806495-0.20413312-81.99344723 0.40826623-163.98689529 1.15675407-245.98034252 0.40826623-49.19606817 23.47530277-77.36643183 72.80746022-78.25100813 64.77822565-1.15675405 126.15423377-0.27217777 190.79637095-0.27217693v0.06804383h187.53024188c65.32258035 0 93.56098782 26.1970763 93.62903247 91.0433474 0.06804465 78.59122971 1.15675405 157.18245941 0.61239853 235.70564447-0.06804465 12.58820535 3.3341737 17.01108848 16.39868994 16.12651218 15.7862906-1.08870941 31.91280277-0.54435471 47.69909253 0.34022159 30.61995941 1.63306412 52.32610877 17.35131088 62.26058441 45.99798458 9.52620941 27.62600813 4.28679465 53.41481817-18.303931 73.28376948z m-31.57258035-56.20463635c-4.21875-12.31602842-15.03780277-9.86643182-24.4279237-9.93447647-26.1970763-0.13608847-52.39415341-0.81653247-78.52318588 0.20413312-19.12046348 0.81653247-26.87752029-4.89919317-26.60534253-25.72076624 1.29284253-86.14415342 0.8845763-172.28830683 1.08870941-258.36441476 0-8.30141153 0.20413312-16.53477841-0.06804382-24.83618994-0.81653247-30.82409253-7.89314529-34.49848782-38.24092778-34.56653165-60.62752029-0.06804465-124.86139123 0-185.42086687 0v-1.42893183c-60.55947565 0-117.78477842-0.20413312-178.41229788 0.06804465-39.26159253 0.20413312-40.69052435 3.53830682-40.69052436 42.39163312-0.06804465 91.65574595 0.40826623 183.31149188 1.22479788 274.96723783 0.20413312 19.52872971-4.96723782 27.28578652-25.24445535 26.1970763-27.48991965-1.42893183-54.91179465-0.27217777-82.46975812-0.40826624-9.45816559 0-18.23588718 1.15675405-21.6381047 11.63558441-3.1980844 9.79838718 3.87852842 14.90171347 10.20665341 20.54939528C274.8654237 506.61592777 369.85534253 590.51461688 465.18548377 673.8689512999999c33.75 29.46320535 74.57661282 28.85080683 108.46270211-0.68044318 94.58165341-82.265625 188.9591737-164.66733848 283.33669317-247.06905277 7.28074595-6.26008035 15.92237905-12.17993912 11.97580683-23.81552353zM454.84274188 380.39364935000003c-20.48135065 20.14112905-40.69052435 39.87399188-60.6275203 59.81098783-16.12651218 16.19455682-17.48739935 30.48387095-4.69506005 42.93598782 12.45211688 12.11189529 26.87752029 10.34274188 43.14012094-5.71572564 25.92489935-25.72076623 51.98588718-51.23739935 77.23034253-77.57056496 7.68901218-7.96118912 12.04385064-7.68901218 19.46068588 0 25.85685471 26.74143182 52.32610877 52.87046348 78.72731817 78.99949595 15.17389123 15.03780277 28.98689529 16.05846753 41.30292372 3.81048377 12.11189529-12.04385064 11.09122971-26.46925405-3.60635147-41.23487824-20.34526218-20.54939529-41.03074595-40.75856817-65.52671348-64.98235958 18.16784253 0 32.04889123-0.20413312 45.99798377 0.06804465 17.21522158 0.34022158 27.69405277-7.82510065 29.87147158-24.63205683 2.04133035-15.37802436-10.07056412-27.96622971-28.17036282-28.850806-19.93699595-0.95262095-39.94203652-0.47631088-59.87903165-0.27217777-12.45211688 0.13608847-23.06703652 2.92590747-22.93094806-17.69153165 0.13608847-20.75352841 10.34274188-19.46068588 24.08770213-19.05241965 18.57610877 0.54435471 37.22026218 0.47631088 55.79637093 0 20.14112905-0.54435471 32.72933441-11.63558441 31.16431412-27.83014123-1.76915342-18.16784253-13.40473782-25.92489935-31.09627029-25.8568547-22.04637095 0.13608847-44.09274188-0.34022158-66.07106818 0.20413311-9.6622987 0.27217777-13.74495941-2.44959659-13.06451623-12.72429464 0.81653247-11.63558441 0.40826623-23.40725812 0.06804465-35.11088719-0.54435471-16.875-10.68296347-25.38054465-26.40121024-25.3125-15.03780277 0-24.49596753 8.98185471-25.58467694 24.29183525-0.8845763 12.31602842-0.74848782 24.76814529-0.13608929 37.15221753 0.40826623 9.04989936-2.92590747 11.83971753-11.83971753 11.70362905-22.72681412-0.47631088-45.45362905-0.40826623-68.18044318-0.06804464-19.59677435 0.27217777-30.07560471 9.52620941-30.41582711 25.92489936-0.34022158 17.69153247 9.93447565 26.80947565 31.09627029 27.01360876 19.25655277 0.20413312 38.58114935 0.47631088 57.83770211-0.13608848 13.26864935-0.40826623 22.1824594-1.02066559 22.25050324 18.23588719 0.06804465 19.8689513-8.77772158 20.07308441-23.27116883 19.32459658-17.82762095-0.8845763-35.79133035-0.40826623-53.68699594-0.13608847-23.06703652 0.34022158-33.95413312 9.11794317-34.22631088 26.80947565-0.27217777 18.0997987 10.34274188 26.60534253 33.54586688 26.87752029 11.70362905 0.13608847 23.40725812 0.13608847 35.11088718 0.34022158 0.34022158 0.06804465 0.74848782 1.02066559 2.72177434 3.6743953z"  horiz-adv-x="1024" />

    
    </font>
</defs>
</svg>
